<mxfile host="app.diagrams.net" modified="2023-07-05T13:45:09.788Z" agent="Mozilla/5.0 (X11; Linux x86_64; rv:109.0) Gecko/20100101 Firefox/109.0" etag="GgG168-IUkdMGYcQGDH7" version="21.1.8" type="github" pages="2">
  <diagram id="C5RBs43oDa-KdzZeNtuy" name="Page-1">
    <mxGraphModel dx="1274" dy="677" grid="1" gridSize="10" guides="1" tooltips="1" connect="1" arrows="1" fold="1" page="1" pageScale="1" pageWidth="827" pageHeight="1169" math="0" shadow="0">
      <root>
        <mxCell id="WIyWlLk6GJQsqaUBKTNV-0" />
        <mxCell id="WIyWlLk6GJQsqaUBKTNV-1" parent="WIyWlLk6GJQsqaUBKTNV-0" />
        <mxCell id="zkfFHV4jXpPFQw0GAbJ--0" value="Person" style="swimlane;fontStyle=2;align=center;verticalAlign=top;childLayout=stackLayout;horizontal=1;startSize=26;horizontalStack=0;resizeParent=1;resizeLast=0;collapsible=1;marginBottom=0;rounded=0;shadow=0;strokeWidth=1;" parent="WIyWlLk6GJQsqaUBKTNV-1" vertex="1">
          <mxGeometry x="220" y="120" width="160" height="138" as="geometry">
            <mxRectangle x="230" y="140" width="160" height="26" as="alternateBounds" />
          </mxGeometry>
        </mxCell>
        <mxCell id="zkfFHV4jXpPFQw0GAbJ--1" value="Name" style="text;align=left;verticalAlign=top;spacingLeft=4;spacingRight=4;overflow=hidden;rotatable=0;points=[[0,0.5],[1,0.5]];portConstraint=eastwest;" parent="zkfFHV4jXpPFQw0GAbJ--0" vertex="1">
          <mxGeometry y="26" width="160" height="26" as="geometry" />
        </mxCell>
        <mxCell id="zkfFHV4jXpPFQw0GAbJ--2" value="Phone Number" style="text;align=left;verticalAlign=top;spacingLeft=4;spacingRight=4;overflow=hidden;rotatable=0;points=[[0,0.5],[1,0.5]];portConstraint=eastwest;rounded=0;shadow=0;html=0;" parent="zkfFHV4jXpPFQw0GAbJ--0" vertex="1">
          <mxGeometry y="52" width="160" height="26" as="geometry" />
        </mxCell>
        <mxCell id="zkfFHV4jXpPFQw0GAbJ--3" value="Email Address" style="text;align=left;verticalAlign=top;spacingLeft=4;spacingRight=4;overflow=hidden;rotatable=0;points=[[0,0.5],[1,0.5]];portConstraint=eastwest;rounded=0;shadow=0;html=0;" parent="zkfFHV4jXpPFQw0GAbJ--0" vertex="1">
          <mxGeometry y="78" width="160" height="26" as="geometry" />
        </mxCell>
        <mxCell id="zkfFHV4jXpPFQw0GAbJ--4" value="" style="line;html=1;strokeWidth=1;align=left;verticalAlign=middle;spacingTop=-1;spacingLeft=3;spacingRight=3;rotatable=0;labelPosition=right;points=[];portConstraint=eastwest;" parent="zkfFHV4jXpPFQw0GAbJ--0" vertex="1">
          <mxGeometry y="104" width="160" height="8" as="geometry" />
        </mxCell>
        <mxCell id="zkfFHV4jXpPFQw0GAbJ--5" value="Purchase Parking Pass" style="text;align=left;verticalAlign=top;spacingLeft=4;spacingRight=4;overflow=hidden;rotatable=0;points=[[0,0.5],[1,0.5]];portConstraint=eastwest;" parent="zkfFHV4jXpPFQw0GAbJ--0" vertex="1">
          <mxGeometry y="112" width="160" height="26" as="geometry" />
        </mxCell>
        <mxCell id="zkfFHV4jXpPFQw0GAbJ--6" value="Student" style="swimlane;fontStyle=0;align=center;verticalAlign=top;childLayout=stackLayout;horizontal=1;startSize=26;horizontalStack=0;resizeParent=1;resizeLast=0;collapsible=1;marginBottom=0;rounded=0;shadow=0;strokeWidth=1;" parent="WIyWlLk6GJQsqaUBKTNV-1" vertex="1">
          <mxGeometry x="120" y="360" width="160" height="138" as="geometry">
            <mxRectangle x="130" y="380" width="160" height="26" as="alternateBounds" />
          </mxGeometry>
        </mxCell>
        <mxCell id="zkfFHV4jXpPFQw0GAbJ--7" value="Student Number" style="text;align=left;verticalAlign=top;spacingLeft=4;spacingRight=4;overflow=hidden;rotatable=0;points=[[0,0.5],[1,0.5]];portConstraint=eastwest;" parent="zkfFHV4jXpPFQw0GAbJ--6" vertex="1">
          <mxGeometry y="26" width="160" height="26" as="geometry" />
        </mxCell>
        <mxCell id="zkfFHV4jXpPFQw0GAbJ--8" value="Average Mark" style="text;align=left;verticalAlign=top;spacingLeft=4;spacingRight=4;overflow=hidden;rotatable=0;points=[[0,0.5],[1,0.5]];portConstraint=eastwest;rounded=0;shadow=0;html=0;" parent="zkfFHV4jXpPFQw0GAbJ--6" vertex="1">
          <mxGeometry y="52" width="160" height="26" as="geometry" />
        </mxCell>
        <mxCell id="zkfFHV4jXpPFQw0GAbJ--9" value="" style="line;html=1;strokeWidth=1;align=left;verticalAlign=middle;spacingTop=-1;spacingLeft=3;spacingRight=3;rotatable=0;labelPosition=right;points=[];portConstraint=eastwest;" parent="zkfFHV4jXpPFQw0GAbJ--6" vertex="1">
          <mxGeometry y="78" width="160" height="8" as="geometry" />
        </mxCell>
        <mxCell id="zkfFHV4jXpPFQw0GAbJ--10" value="Is Eligible To Enroll" style="text;align=left;verticalAlign=top;spacingLeft=4;spacingRight=4;overflow=hidden;rotatable=0;points=[[0,0.5],[1,0.5]];portConstraint=eastwest;fontStyle=4" parent="zkfFHV4jXpPFQw0GAbJ--6" vertex="1">
          <mxGeometry y="86" width="160" height="26" as="geometry" />
        </mxCell>
        <mxCell id="zkfFHV4jXpPFQw0GAbJ--11" value="Get Seminars Taken" style="text;align=left;verticalAlign=top;spacingLeft=4;spacingRight=4;overflow=hidden;rotatable=0;points=[[0,0.5],[1,0.5]];portConstraint=eastwest;" parent="zkfFHV4jXpPFQw0GAbJ--6" vertex="1">
          <mxGeometry y="112" width="160" height="26" as="geometry" />
        </mxCell>
        <mxCell id="zkfFHV4jXpPFQw0GAbJ--12" value="" style="endArrow=block;endSize=10;endFill=0;shadow=0;strokeWidth=1;rounded=0;edgeStyle=elbowEdgeStyle;elbow=vertical;" parent="WIyWlLk6GJQsqaUBKTNV-1" source="zkfFHV4jXpPFQw0GAbJ--6" target="zkfFHV4jXpPFQw0GAbJ--0" edge="1">
          <mxGeometry width="160" relative="1" as="geometry">
            <mxPoint x="200" y="203" as="sourcePoint" />
            <mxPoint x="200" y="203" as="targetPoint" />
          </mxGeometry>
        </mxCell>
        <mxCell id="zkfFHV4jXpPFQw0GAbJ--13" value="Professor" style="swimlane;fontStyle=0;align=center;verticalAlign=top;childLayout=stackLayout;horizontal=1;startSize=26;horizontalStack=0;resizeParent=1;resizeLast=0;collapsible=1;marginBottom=0;rounded=0;shadow=0;strokeWidth=1;" parent="WIyWlLk6GJQsqaUBKTNV-1" vertex="1">
          <mxGeometry x="330" y="360" width="160" height="70" as="geometry">
            <mxRectangle x="340" y="380" width="170" height="26" as="alternateBounds" />
          </mxGeometry>
        </mxCell>
        <mxCell id="zkfFHV4jXpPFQw0GAbJ--14" value="Salary" style="text;align=left;verticalAlign=top;spacingLeft=4;spacingRight=4;overflow=hidden;rotatable=0;points=[[0,0.5],[1,0.5]];portConstraint=eastwest;" parent="zkfFHV4jXpPFQw0GAbJ--13" vertex="1">
          <mxGeometry y="26" width="160" height="26" as="geometry" />
        </mxCell>
        <mxCell id="zkfFHV4jXpPFQw0GAbJ--15" value="" style="line;html=1;strokeWidth=1;align=left;verticalAlign=middle;spacingTop=-1;spacingLeft=3;spacingRight=3;rotatable=0;labelPosition=right;points=[];portConstraint=eastwest;" parent="zkfFHV4jXpPFQw0GAbJ--13" vertex="1">
          <mxGeometry y="52" width="160" height="8" as="geometry" />
        </mxCell>
        <mxCell id="zkfFHV4jXpPFQw0GAbJ--16" value="" style="endArrow=block;endSize=10;endFill=0;shadow=0;strokeWidth=1;rounded=0;edgeStyle=elbowEdgeStyle;elbow=vertical;" parent="WIyWlLk6GJQsqaUBKTNV-1" source="zkfFHV4jXpPFQw0GAbJ--13" target="zkfFHV4jXpPFQw0GAbJ--0" edge="1">
          <mxGeometry width="160" relative="1" as="geometry">
            <mxPoint x="210" y="373" as="sourcePoint" />
            <mxPoint x="310" y="271" as="targetPoint" />
          </mxGeometry>
        </mxCell>
        <mxCell id="zkfFHV4jXpPFQw0GAbJ--17" value="Address" style="swimlane;fontStyle=0;align=center;verticalAlign=top;childLayout=stackLayout;horizontal=1;startSize=26;horizontalStack=0;resizeParent=1;resizeLast=0;collapsible=1;marginBottom=0;rounded=0;shadow=0;strokeWidth=1;" parent="WIyWlLk6GJQsqaUBKTNV-1" vertex="1">
          <mxGeometry x="508" y="120" width="160" height="216" as="geometry">
            <mxRectangle x="550" y="140" width="160" height="26" as="alternateBounds" />
          </mxGeometry>
        </mxCell>
        <mxCell id="zkfFHV4jXpPFQw0GAbJ--18" value="Street" style="text;align=left;verticalAlign=top;spacingLeft=4;spacingRight=4;overflow=hidden;rotatable=0;points=[[0,0.5],[1,0.5]];portConstraint=eastwest;" parent="zkfFHV4jXpPFQw0GAbJ--17" vertex="1">
          <mxGeometry y="26" width="160" height="26" as="geometry" />
        </mxCell>
        <mxCell id="zkfFHV4jXpPFQw0GAbJ--19" value="City" style="text;align=left;verticalAlign=top;spacingLeft=4;spacingRight=4;overflow=hidden;rotatable=0;points=[[0,0.5],[1,0.5]];portConstraint=eastwest;rounded=0;shadow=0;html=0;" parent="zkfFHV4jXpPFQw0GAbJ--17" vertex="1">
          <mxGeometry y="52" width="160" height="26" as="geometry" />
        </mxCell>
        <mxCell id="zkfFHV4jXpPFQw0GAbJ--20" value="State" style="text;align=left;verticalAlign=top;spacingLeft=4;spacingRight=4;overflow=hidden;rotatable=0;points=[[0,0.5],[1,0.5]];portConstraint=eastwest;rounded=0;shadow=0;html=0;" parent="zkfFHV4jXpPFQw0GAbJ--17" vertex="1">
          <mxGeometry y="78" width="160" height="26" as="geometry" />
        </mxCell>
        <mxCell id="zkfFHV4jXpPFQw0GAbJ--21" value="Postal Code" style="text;align=left;verticalAlign=top;spacingLeft=4;spacingRight=4;overflow=hidden;rotatable=0;points=[[0,0.5],[1,0.5]];portConstraint=eastwest;rounded=0;shadow=0;html=0;" parent="zkfFHV4jXpPFQw0GAbJ--17" vertex="1">
          <mxGeometry y="104" width="160" height="26" as="geometry" />
        </mxCell>
        <mxCell id="zkfFHV4jXpPFQw0GAbJ--22" value="Country" style="text;align=left;verticalAlign=top;spacingLeft=4;spacingRight=4;overflow=hidden;rotatable=0;points=[[0,0.5],[1,0.5]];portConstraint=eastwest;rounded=0;shadow=0;html=0;" parent="zkfFHV4jXpPFQw0GAbJ--17" vertex="1">
          <mxGeometry y="130" width="160" height="26" as="geometry" />
        </mxCell>
        <mxCell id="zkfFHV4jXpPFQw0GAbJ--23" value="" style="line;html=1;strokeWidth=1;align=left;verticalAlign=middle;spacingTop=-1;spacingLeft=3;spacingRight=3;rotatable=0;labelPosition=right;points=[];portConstraint=eastwest;" parent="zkfFHV4jXpPFQw0GAbJ--17" vertex="1">
          <mxGeometry y="156" width="160" height="8" as="geometry" />
        </mxCell>
        <mxCell id="zkfFHV4jXpPFQw0GAbJ--24" value="Validate" style="text;align=left;verticalAlign=top;spacingLeft=4;spacingRight=4;overflow=hidden;rotatable=0;points=[[0,0.5],[1,0.5]];portConstraint=eastwest;" parent="zkfFHV4jXpPFQw0GAbJ--17" vertex="1">
          <mxGeometry y="164" width="160" height="26" as="geometry" />
        </mxCell>
        <mxCell id="zkfFHV4jXpPFQw0GAbJ--25" value="Output As Label" style="text;align=left;verticalAlign=top;spacingLeft=4;spacingRight=4;overflow=hidden;rotatable=0;points=[[0,0.5],[1,0.5]];portConstraint=eastwest;" parent="zkfFHV4jXpPFQw0GAbJ--17" vertex="1">
          <mxGeometry y="190" width="160" height="26" as="geometry" />
        </mxCell>
        <mxCell id="zkfFHV4jXpPFQw0GAbJ--26" value="" style="endArrow=open;shadow=0;strokeWidth=1;rounded=0;endFill=1;edgeStyle=elbowEdgeStyle;elbow=vertical;" parent="WIyWlLk6GJQsqaUBKTNV-1" source="zkfFHV4jXpPFQw0GAbJ--0" target="zkfFHV4jXpPFQw0GAbJ--17" edge="1">
          <mxGeometry x="0.5" y="41" relative="1" as="geometry">
            <mxPoint x="380" y="192" as="sourcePoint" />
            <mxPoint x="540" y="192" as="targetPoint" />
            <mxPoint x="-40" y="32" as="offset" />
          </mxGeometry>
        </mxCell>
        <mxCell id="zkfFHV4jXpPFQw0GAbJ--27" value="0..1" style="resizable=0;align=left;verticalAlign=bottom;labelBackgroundColor=none;fontSize=12;" parent="zkfFHV4jXpPFQw0GAbJ--26" connectable="0" vertex="1">
          <mxGeometry x="-1" relative="1" as="geometry">
            <mxPoint y="4" as="offset" />
          </mxGeometry>
        </mxCell>
        <mxCell id="zkfFHV4jXpPFQw0GAbJ--28" value="1" style="resizable=0;align=right;verticalAlign=bottom;labelBackgroundColor=none;fontSize=12;" parent="zkfFHV4jXpPFQw0GAbJ--26" connectable="0" vertex="1">
          <mxGeometry x="1" relative="1" as="geometry">
            <mxPoint x="-7" y="4" as="offset" />
          </mxGeometry>
        </mxCell>
        <mxCell id="zkfFHV4jXpPFQw0GAbJ--29" value="lives at" style="text;html=1;resizable=0;points=[];;align=center;verticalAlign=middle;labelBackgroundColor=none;rounded=0;shadow=0;strokeWidth=1;fontSize=12;" parent="zkfFHV4jXpPFQw0GAbJ--26" vertex="1" connectable="0">
          <mxGeometry x="0.5" y="49" relative="1" as="geometry">
            <mxPoint x="-38" y="40" as="offset" />
          </mxGeometry>
        </mxCell>
      </root>
    </mxGraphModel>
  </diagram>
  <diagram id="flwVs126roQJfSaLhNs6" name="Class Diagram SE">
    <mxGraphModel dx="3398" dy="1354" grid="1" gridSize="10" guides="1" tooltips="1" connect="1" arrows="1" fold="1" page="1" pageScale="1" pageWidth="850" pageHeight="1100" math="0" shadow="0">
      <root>
        <mxCell id="0" />
        <mxCell id="1" parent="0" />
        <mxCell id="XWd1LqdxiURgioBI9aVz-24" value="bahan_baku" style="swimlane;fontStyle=0;align=center;verticalAlign=top;childLayout=stackLayout;horizontal=1;startSize=30;horizontalStack=0;resizeParent=1;resizeParentMax=0;resizeLast=0;collapsible=0;marginBottom=0;html=1;whiteSpace=wrap;labelBackgroundColor=none;fillColor=#f8cecc;strokeColor=#b85450;rounded=1;" parent="1" vertex="1">
          <mxGeometry x="-475.5161904761905" y="496.8131868131868" width="230" height="201.29263736263738" as="geometry" />
        </mxCell>
        <mxCell id="XWd1LqdxiURgioBI9aVz-26" value="- Id_bahan_baku : Integer&lt;br&gt;- Nama_bahan_baku : String&lt;br&gt;- Qty : Integer&lt;br&gt;- harga : Integer" style="text;html=1;strokeColor=none;fillColor=none;align=left;verticalAlign=middle;spacingLeft=4;spacingRight=4;overflow=hidden;rotatable=0;points=[[0,0.5],[1,0.5]];portConstraint=eastwest;whiteSpace=wrap;labelBackgroundColor=none;fontColor=#393C56;rounded=1;" parent="XWd1LqdxiURgioBI9aVz-24" vertex="1">
          <mxGeometry y="30" width="230" height="59.340659340659336" as="geometry" />
        </mxCell>
        <mxCell id="XWd1LqdxiURgioBI9aVz-28" value="- Id_gudang:Integer" style="text;html=1;strokeColor=none;fillColor=none;align=left;verticalAlign=middle;spacingLeft=4;spacingRight=4;overflow=hidden;rotatable=0;points=[[0,0.5],[1,0.5]];portConstraint=eastwest;whiteSpace=wrap;labelBackgroundColor=none;fontColor=#393C56;rounded=1;" parent="XWd1LqdxiURgioBI9aVz-24" vertex="1">
          <mxGeometry y="89.34065934065933" width="230" height="27.69230769230769" as="geometry" />
        </mxCell>
        <mxCell id="XWd1LqdxiURgioBI9aVz-29" value="" style="line;strokeWidth=1;fillColor=none;align=left;verticalAlign=middle;spacingTop=-1;spacingLeft=3;spacingRight=3;rotatable=0;labelPosition=right;points=[];portConstraint=eastwest;labelBackgroundColor=none;strokeColor=#E07A5F;fontColor=#393C56;rounded=1;" parent="XWd1LqdxiURgioBI9aVz-24" vertex="1">
          <mxGeometry y="117.03296703296702" width="230" height="6.329670329670329" as="geometry" />
        </mxCell>
        <mxCell id="XWd1LqdxiURgioBI9aVz-31" value="+ tambahDataBahanBaku(bahan_baku)&lt;br&gt;# ubahDataBahanBaku(bahan_baku)&lt;br&gt;# getDataBahanBaku()&lt;br&gt;# hapusDataBahanBaku (bahan_baku)" style="text;html=1;strokeColor=none;fillColor=none;align=left;verticalAlign=middle;spacingLeft=4;spacingRight=4;overflow=hidden;rotatable=0;points=[[0,0.5],[1,0.5]];portConstraint=eastwest;whiteSpace=wrap;labelBackgroundColor=none;fontColor=#393C56;rounded=1;" parent="XWd1LqdxiURgioBI9aVz-24" vertex="1">
          <mxGeometry y="123.36263736263736" width="230" height="77.93" as="geometry" />
        </mxCell>
        <mxCell id="XWd1LqdxiURgioBI9aVz-32" value="produk" style="swimlane;fontStyle=0;align=center;verticalAlign=top;childLayout=stackLayout;horizontal=1;startSize=30;horizontalStack=0;resizeParent=1;resizeParentMax=0;resizeLast=0;collapsible=0;marginBottom=0;html=1;whiteSpace=wrap;labelBackgroundColor=none;fillColor=#f8cecc;strokeColor=#b85450;rounded=1;" parent="1" vertex="1">
          <mxGeometry x="-390" y="722.31" width="238.88" height="200.1098901098901" as="geometry" />
        </mxCell>
        <mxCell id="XWd1LqdxiURgioBI9aVz-34" value="- Id_produk: Integer&lt;br&gt;- Nama_produk: Integer&lt;br&gt;- Stok: Integer&amp;nbsp;&lt;br&gt;- harga: Integer&lt;br&gt;- Tanggal_pembuatan: Date" style="text;html=1;strokeColor=none;fillColor=none;align=left;verticalAlign=middle;spacingLeft=4;spacingRight=4;overflow=hidden;rotatable=0;points=[[0,0.5],[1,0.5]];portConstraint=eastwest;whiteSpace=wrap;labelBackgroundColor=none;fontColor=#393C56;rounded=1;" parent="XWd1LqdxiURgioBI9aVz-32" vertex="1">
          <mxGeometry y="30" width="238.88" height="75.16483516483517" as="geometry" />
        </mxCell>
        <mxCell id="XIjyqr4JSDa7rmxiRrNb-2" value="-id_gudang:Integer" style="text;html=1;strokeColor=none;fillColor=none;align=left;verticalAlign=middle;spacingLeft=4;spacingRight=4;overflow=hidden;rotatable=0;points=[[0,0.5],[1,0.5]];portConstraint=eastwest;whiteSpace=wrap;labelBackgroundColor=none;fontColor=#393C56;rounded=1;" parent="XWd1LqdxiURgioBI9aVz-32" vertex="1">
          <mxGeometry y="105.16483516483517" width="238.88" height="27.69230769230769" as="geometry" />
        </mxCell>
        <mxCell id="XWd1LqdxiURgioBI9aVz-37" value="" style="line;strokeWidth=1;fillColor=none;align=left;verticalAlign=middle;spacingTop=-1;spacingLeft=3;spacingRight=3;rotatable=0;labelPosition=right;points=[];portConstraint=eastwest;labelBackgroundColor=none;strokeColor=#E07A5F;fontColor=#393C56;rounded=1;" parent="XWd1LqdxiURgioBI9aVz-32" vertex="1">
          <mxGeometry y="132.85714285714286" width="238.88" height="6.329670329670329" as="geometry" />
        </mxCell>
        <mxCell id="XWd1LqdxiURgioBI9aVz-39" value="+ tambahInformasiStokProduk(produk)&lt;br&gt;+ ubahInformasiStokProduk(produk)&lt;br&gt;+ getInformasiStokProduk()&lt;br&gt;+ hapusInformasiStokProduk(produk)" style="text;html=1;strokeColor=none;fillColor=none;align=left;verticalAlign=middle;spacingLeft=4;spacingRight=4;overflow=hidden;rotatable=0;points=[[0,0.5],[1,0.5]];portConstraint=eastwest;whiteSpace=wrap;labelBackgroundColor=none;fontColor=#393C56;rounded=1;" parent="XWd1LqdxiURgioBI9aVz-32" vertex="1">
          <mxGeometry y="139.1868131868132" width="238.88" height="60.92307692307692" as="geometry" />
        </mxCell>
        <mxCell id="XWd1LqdxiURgioBI9aVz-40" value="Gudang" style="swimlane;fontStyle=0;align=center;verticalAlign=top;childLayout=stackLayout;horizontal=1;startSize=30;horizontalStack=0;resizeParent=1;resizeParentMax=0;resizeLast=0;collapsible=0;marginBottom=0;html=1;whiteSpace=wrap;labelBackgroundColor=none;fillColor=#f8cecc;strokeColor=#b85450;rounded=1;" parent="1" vertex="1">
          <mxGeometry x="-792" y="609.1648351648352" width="176.59" height="175.45054945054946" as="geometry" />
        </mxCell>
        <mxCell id="XWd1LqdxiURgioBI9aVz-42" value="- Id_gudang : Integer&lt;br&gt;- Nama_gudang: String&lt;br&gt;- Alamat : String" style="text;html=1;strokeColor=none;fillColor=none;align=left;verticalAlign=middle;spacingLeft=4;spacingRight=4;overflow=hidden;rotatable=0;points=[[0,0.5],[1,0.5]];portConstraint=eastwest;whiteSpace=wrap;labelBackgroundColor=none;fontColor=#393C56;rounded=1;" parent="XWd1LqdxiURgioBI9aVz-40" vertex="1">
          <mxGeometry y="30" width="176.59" height="60" as="geometry" />
        </mxCell>
        <mxCell id="XWd1LqdxiURgioBI9aVz-45" value="" style="line;strokeWidth=1;fillColor=none;align=left;verticalAlign=middle;spacingTop=-1;spacingLeft=3;spacingRight=3;rotatable=0;labelPosition=right;points=[];portConstraint=eastwest;labelBackgroundColor=none;strokeColor=#E07A5F;fontColor=#393C56;rounded=1;" parent="XWd1LqdxiURgioBI9aVz-40" vertex="1">
          <mxGeometry y="90" width="176.59" height="6.329670329670329" as="geometry" />
        </mxCell>
        <mxCell id="XWd1LqdxiURgioBI9aVz-47" value="+ tambahGudang(Gudang)&lt;br&gt;+ ubahGudang(Gudang)&lt;br&gt;+ getGudang()&lt;br&gt;+ hapusGudang(Gudang)" style="text;html=1;strokeColor=none;fillColor=none;align=left;verticalAlign=middle;spacingLeft=4;spacingRight=4;overflow=hidden;rotatable=0;points=[[0,0.5],[1,0.5]];portConstraint=eastwest;whiteSpace=wrap;labelBackgroundColor=none;fontColor=#393C56;rounded=1;" parent="XWd1LqdxiURgioBI9aVz-40" vertex="1">
          <mxGeometry y="96.32967032967034" width="176.59" height="79.12087912087912" as="geometry" />
        </mxCell>
        <mxCell id="XIjyqr4JSDa7rmxiRrNb-3" style="edgeStyle=orthogonalEdgeStyle;rounded=1;orthogonalLoop=1;jettySize=auto;html=1;endArrow=none;endFill=0;labelBackgroundColor=none;strokeColor=#E07A5F;fontColor=default;exitX=1.029;exitY=0.483;exitDx=0;exitDy=0;exitPerimeter=0;entryX=0;entryY=0.5;entryDx=0;entryDy=0;" parent="1" source="XWd1LqdxiURgioBI9aVz-47" target="xvfXCg9nMK2wJOpqpjW8-22" edge="1">
          <mxGeometry relative="1" as="geometry">
            <mxPoint x="-388.48314285714287" y="821.2087912087911" as="targetPoint" />
            <mxPoint x="-562.5492380952381" y="742.0879120879121" as="sourcePoint" />
          </mxGeometry>
        </mxCell>
        <mxCell id="XIjyqr4JSDa7rmxiRrNb-5" value="1..*" style="edgeLabel;html=1;align=center;verticalAlign=middle;resizable=0;points=[];fontSize=17;labelBackgroundColor=none;fontColor=#393C56;rounded=1;" parent="XIjyqr4JSDa7rmxiRrNb-3" vertex="1" connectable="0">
          <mxGeometry x="-0.5957" y="4" relative="1" as="geometry">
            <mxPoint x="-40" y="-16" as="offset" />
          </mxGeometry>
        </mxCell>
        <mxCell id="XIjyqr4JSDa7rmxiRrNb-6" value="1" style="edgeLabel;html=1;align=center;verticalAlign=middle;resizable=0;points=[];labelBackgroundColor=none;fontColor=#393C56;rounded=1;fontSize=17;" parent="XIjyqr4JSDa7rmxiRrNb-3" vertex="1" connectable="0">
          <mxGeometry x="0.8502" relative="1" as="geometry">
            <mxPoint x="-2" y="-17" as="offset" />
          </mxGeometry>
        </mxCell>
        <mxCell id="XIjyqr4JSDa7rmxiRrNb-7" value="Disimpan" style="edgeLabel;html=1;align=center;verticalAlign=middle;resizable=0;points=[];fontSize=17;labelBackgroundColor=none;fontColor=#393C56;rounded=1;" parent="XIjyqr4JSDa7rmxiRrNb-3" vertex="1" connectable="0">
          <mxGeometry x="-0.0464" y="-3" relative="1" as="geometry">
            <mxPoint y="-63" as="offset" />
          </mxGeometry>
        </mxCell>
        <mxCell id="XWd1LqdxiURgioBI9aVz-48" value="Nota" style="swimlane;fontStyle=0;align=center;verticalAlign=top;childLayout=stackLayout;horizontal=1;startSize=30;horizontalStack=0;resizeParent=1;resizeParentMax=0;resizeLast=0;collapsible=0;marginBottom=0;html=1;whiteSpace=wrap;labelBackgroundColor=none;fillColor=#e1d5e7;strokeColor=#9673a6;rounded=1;" parent="1" vertex="1">
          <mxGeometry x="1132.5855182857142" y="750" width="146.67" height="179.99846153846153" as="geometry" />
        </mxCell>
        <mxCell id="XWd1LqdxiURgioBI9aVz-50" value="- Id_nota: Integer&lt;br&gt;&lt;div&gt;- Tanggal: Date&lt;/div&gt;&lt;div&gt;- total_harga : int&lt;br&gt;&lt;/div&gt;&lt;div&gt;- Id_pesanan : int&lt;br&gt;&lt;/div&gt;" style="text;html=1;strokeColor=none;fillColor=none;align=left;verticalAlign=middle;spacingLeft=4;spacingRight=4;overflow=hidden;rotatable=0;points=[[0,0.5],[1,0.5]];portConstraint=eastwest;whiteSpace=wrap;labelBackgroundColor=none;fontColor=#393C56;rounded=1;" parent="XWd1LqdxiURgioBI9aVz-48" vertex="1">
          <mxGeometry y="30" width="146.67" height="71.20879120879121" as="geometry" />
        </mxCell>
        <mxCell id="XWd1LqdxiURgioBI9aVz-53" value="" style="line;strokeWidth=1;fillColor=none;align=left;verticalAlign=middle;spacingTop=-1;spacingLeft=3;spacingRight=3;rotatable=0;labelPosition=right;points=[];portConstraint=eastwest;labelBackgroundColor=none;strokeColor=#E07A5F;fontColor=#393C56;rounded=1;" parent="XWd1LqdxiURgioBI9aVz-48" vertex="1">
          <mxGeometry y="101.20879120879121" width="146.67" height="6.32967032967033" as="geometry" />
        </mxCell>
        <mxCell id="XWd1LqdxiURgioBI9aVz-55" value="+ tambahNota(Nota)&lt;br&gt;+ ubahNota(Nota)&lt;br&gt;+ dapatkanNota()&lt;br&gt;+ hapusNota(Nota)" style="text;html=1;strokeColor=none;fillColor=none;align=left;verticalAlign=middle;spacingLeft=4;spacingRight=4;overflow=hidden;rotatable=0;points=[[0,0.5],[1,0.5]];portConstraint=eastwest;whiteSpace=wrap;labelBackgroundColor=none;fontColor=#393C56;rounded=1;" parent="XWd1LqdxiURgioBI9aVz-48" vertex="1">
          <mxGeometry y="107.53846153846155" width="146.67" height="72.46" as="geometry" />
        </mxCell>
        <mxCell id="XWd1LqdxiURgioBI9aVz-56" value="supplier" style="swimlane;fontStyle=0;align=center;verticalAlign=top;childLayout=stackLayout;horizontal=1;startSize=30;horizontalStack=0;resizeParent=1;resizeParentMax=0;resizeLast=0;collapsible=0;marginBottom=0;html=1;whiteSpace=wrap;labelBackgroundColor=none;fillColor=#f8cecc;strokeColor=#b85450;rounded=1;" parent="1" vertex="1">
          <mxGeometry x="-200.78866666666673" y="350.0018681318681" width="200" height="205.80681318681317" as="geometry" />
        </mxCell>
        <mxCell id="XWd1LqdxiURgioBI9aVz-58" value="- Id_supplier : Integer&lt;br&gt;- Perusahaan_supplier : String&lt;br&gt;- Alamat_perusahaan: String&lt;br&gt;- Nama_supplier: String&lt;br&gt;- No_telepon : String&lt;br&gt;- Email : String&lt;br&gt;- ID_bahan_baku: Integer" style="text;html=1;strokeColor=none;fillColor=none;align=left;verticalAlign=middle;spacingLeft=4;spacingRight=4;overflow=hidden;rotatable=0;points=[[0,0.5],[1,0.5]];portConstraint=eastwest;whiteSpace=wrap;labelBackgroundColor=none;rounded=1;" parent="XWd1LqdxiURgioBI9aVz-56" vertex="1">
          <mxGeometry y="30" width="200" height="102.85714285714283" as="geometry" />
        </mxCell>
        <mxCell id="XWd1LqdxiURgioBI9aVz-61" value="" style="line;strokeWidth=1;fillColor=none;align=left;verticalAlign=middle;spacingTop=-1;spacingLeft=3;spacingRight=3;rotatable=0;labelPosition=right;points=[];portConstraint=eastwest;labelBackgroundColor=none;strokeColor=#E07A5F;fontColor=#393C56;rounded=1;" parent="XWd1LqdxiURgioBI9aVz-56" vertex="1">
          <mxGeometry y="132.85714285714283" width="200" height="6.3296703296703285" as="geometry" />
        </mxCell>
        <mxCell id="XWd1LqdxiURgioBI9aVz-63" value="+ addInformasiSupplier(supplier)&lt;br&gt;+ updateInformasiSupplier(supplier)&lt;br&gt;+ getInformasiSupplier()&lt;br&gt;+ deleteInformasiSupplier(supplier)" style="text;html=1;strokeColor=none;fillColor=none;align=left;verticalAlign=middle;spacingLeft=4;spacingRight=4;overflow=hidden;rotatable=0;points=[[0,0.5],[1,0.5]];portConstraint=eastwest;whiteSpace=wrap;labelBackgroundColor=none;fontColor=#393C56;rounded=1;" parent="XWd1LqdxiURgioBI9aVz-56" vertex="1">
          <mxGeometry y="139.18681318681317" width="200" height="66.62" as="geometry" />
        </mxCell>
        <mxCell id="XWd1LqdxiURgioBI9aVz-64" value="Staff" style="swimlane;fontStyle=0;align=center;verticalAlign=top;childLayout=stackLayout;horizontal=1;startSize=22;horizontalStack=0;resizeParent=1;resizeParentMax=0;resizeLast=0;collapsible=0;marginBottom=0;html=1;whiteSpace=wrap;labelBackgroundColor=none;fillColor=#dae8fc;strokeColor=#6c8ebf;rounded=1;" parent="1" vertex="1">
          <mxGeometry x="276.1328571428571" y="269.88065934065935" width="126.59" height="206.92802197802197" as="geometry" />
        </mxCell>
        <mxCell id="XWd1LqdxiURgioBI9aVz-66" value="+ Id_staff : Integer&lt;br&gt;+ Nama: String&lt;br&gt;+ Jenis_kelamin: String&lt;br&gt;+ Alamat: String&lt;br&gt;+ No_telepon : String&lt;br&gt;+ id_Jabatan: int&lt;br&gt;+ Id_Divisi : int&lt;br&gt;+ Email : String" style="text;html=1;strokeColor=none;fillColor=none;align=left;verticalAlign=middle;spacingLeft=4;spacingRight=4;overflow=hidden;rotatable=0;points=[[0,0.5],[1,0.5]];portConstraint=eastwest;whiteSpace=wrap;labelBackgroundColor=none;fontColor=#393C56;rounded=1;" parent="XWd1LqdxiURgioBI9aVz-64" vertex="1">
          <mxGeometry y="22" width="126.59" height="146.95" as="geometry" />
        </mxCell>
        <mxCell id="XWd1LqdxiURgioBI9aVz-69" value="" style="line;strokeWidth=1;fillColor=none;align=left;verticalAlign=middle;spacingTop=-1;spacingLeft=3;spacingRight=3;rotatable=0;labelPosition=right;points=[];portConstraint=eastwest;labelBackgroundColor=none;strokeColor=#E07A5F;fontColor=#393C56;rounded=1;" parent="XWd1LqdxiURgioBI9aVz-64" vertex="1">
          <mxGeometry y="168.95" width="126.59" height="6.32967032967033" as="geometry" />
        </mxCell>
        <mxCell id="XWd1LqdxiURgioBI9aVz-71" value="+ login(Staff)" style="text;html=1;strokeColor=none;fillColor=none;align=left;verticalAlign=middle;spacingLeft=4;spacingRight=4;overflow=hidden;rotatable=0;points=[[0,0.5],[1,0.5]];portConstraint=eastwest;whiteSpace=wrap;labelBackgroundColor=none;fontColor=#393C56;rounded=1;" parent="XWd1LqdxiURgioBI9aVz-64" vertex="1">
          <mxGeometry y="175.27967032967032" width="126.59" height="31.64835164835165" as="geometry" />
        </mxCell>
        <mxCell id="XIjyqr4JSDa7rmxiRrNb-15" style="edgeStyle=orthogonalEdgeStyle;rounded=1;orthogonalLoop=1;jettySize=auto;html=1;entryX=1;entryY=0.633;entryDx=0;entryDy=0;entryPerimeter=0;endArrow=none;endFill=0;labelBackgroundColor=none;strokeColor=#E07A5F;fontColor=default;" parent="1" source="XWd1LqdxiURgioBI9aVz-73" target="XWd1LqdxiURgioBI9aVz-58" edge="1">
          <mxGeometry relative="1" as="geometry" />
        </mxCell>
        <mxCell id="XIjyqr4JSDa7rmxiRrNb-16" value="1..*" style="edgeLabel;html=1;align=center;verticalAlign=middle;resizable=0;points=[];fontSize=17;labelBackgroundColor=none;fontColor=#393C56;rounded=1;" parent="XIjyqr4JSDa7rmxiRrNb-15" vertex="1" connectable="0">
          <mxGeometry x="0.6114" y="-1" relative="1" as="geometry">
            <mxPoint y="-21" as="offset" />
          </mxGeometry>
        </mxCell>
        <mxCell id="XIjyqr4JSDa7rmxiRrNb-17" value="1" style="edgeLabel;html=1;align=center;verticalAlign=middle;resizable=0;points=[];fontSize=17;labelBackgroundColor=none;fontColor=#393C56;rounded=1;" parent="XIjyqr4JSDa7rmxiRrNb-15" vertex="1" connectable="0">
          <mxGeometry x="-0.715" y="3" relative="1" as="geometry">
            <mxPoint x="-12" as="offset" />
          </mxGeometry>
        </mxCell>
        <mxCell id="XIjyqr4JSDa7rmxiRrNb-38" value="mengurus" style="edgeLabel;html=1;align=center;verticalAlign=middle;resizable=0;points=[];fontSize=17;labelBackgroundColor=none;fontColor=#393C56;rounded=1;" parent="XIjyqr4JSDa7rmxiRrNb-15" vertex="1" connectable="0">
          <mxGeometry x="-0.1185" y="-4" relative="1" as="geometry">
            <mxPoint x="41" y="15" as="offset" />
          </mxGeometry>
        </mxCell>
        <mxCell id="XIjyqr4JSDa7rmxiRrNb-19" style="edgeStyle=orthogonalEdgeStyle;rounded=1;orthogonalLoop=1;jettySize=auto;html=1;entryX=0.99;entryY=0.134;entryDx=0;entryDy=0;endArrow=none;endFill=0;labelBackgroundColor=none;strokeColor=#E07A5F;fontColor=default;exitX=0.003;exitY=0.169;exitDx=0;exitDy=0;exitPerimeter=0;entryPerimeter=0;" parent="1" source="XWd1LqdxiURgioBI9aVz-75" target="XWd1LqdxiURgioBI9aVz-31" edge="1">
          <mxGeometry relative="1" as="geometry">
            <mxPoint x="70.41838095238097" y="655.054945054945" as="sourcePoint" />
            <mxPoint x="-277.7138095238096" y="607.5824175824175" as="targetPoint" />
          </mxGeometry>
        </mxCell>
        <mxCell id="XIjyqr4JSDa7rmxiRrNb-21" value="1..*" style="edgeLabel;html=1;align=center;verticalAlign=middle;resizable=0;points=[];fontSize=17;labelBackgroundColor=none;fontColor=#393C56;rounded=1;" parent="XIjyqr4JSDa7rmxiRrNb-19" vertex="1" connectable="0">
          <mxGeometry x="0.7903" y="3" relative="1" as="geometry">
            <mxPoint y="-26" as="offset" />
          </mxGeometry>
        </mxCell>
        <mxCell id="XIjyqr4JSDa7rmxiRrNb-23" value="mengurus" style="edgeLabel;html=1;align=center;verticalAlign=middle;resizable=0;points=[];fontSize=17;labelBackgroundColor=none;fontColor=#393C56;rounded=1;" parent="XIjyqr4JSDa7rmxiRrNb-19" vertex="1" connectable="0">
          <mxGeometry x="-0.0444" y="3" relative="1" as="geometry">
            <mxPoint x="-18" y="20" as="offset" />
          </mxGeometry>
        </mxCell>
        <mxCell id="XIjyqr4JSDa7rmxiRrNb-27" value="1" style="edgeLabel;html=1;align=center;verticalAlign=middle;resizable=0;points=[];fontSize=17;labelBackgroundColor=none;fontColor=#393C56;rounded=1;" parent="XIjyqr4JSDa7rmxiRrNb-19" vertex="1" connectable="0">
          <mxGeometry x="-0.8144" y="-2" relative="1" as="geometry">
            <mxPoint y="-25" as="offset" />
          </mxGeometry>
        </mxCell>
        <mxCell id="XWd1LqdxiURgioBI9aVz-73" value="Staff gudang" style="swimlane;fontStyle=0;align=center;verticalAlign=top;childLayout=stackLayout;horizontal=1;startSize=30;horizontalStack=0;resizeParent=1;resizeParentMax=0;resizeLast=0;collapsible=0;marginBottom=0;html=1;whiteSpace=wrap;labelBackgroundColor=none;fillColor=#f8cecc;strokeColor=#b85450;rounded=1;" parent="1" vertex="1">
          <mxGeometry x="-87.82352380952386" y="591.7582417582418" width="229.4507619047619" height="156.5934065934066" as="geometry" />
        </mxCell>
        <mxCell id="XWd1LqdxiURgioBI9aVz-75" value="&lt;div&gt;&lt;font color=&quot;#837c7c&quot;&gt;- &lt;/font&gt;Id_staff : int&lt;font color=&quot;#837c7c&quot;&gt;&lt;br&gt;&lt;/font&gt;&lt;/div&gt;&lt;div&gt;&lt;font color=&quot;#837c7c&quot;&gt;- sertifikatsi_forklift : int&lt;br&gt;&lt;/font&gt;&lt;/div&gt;" style="text;html=1;strokeColor=none;fillColor=none;align=left;verticalAlign=middle;spacingLeft=4;spacingRight=4;overflow=hidden;rotatable=0;points=[[0,0.5],[1,0.5]];portConstraint=eastwest;whiteSpace=wrap;labelBackgroundColor=none;fontColor=#393C56;rounded=1;" parent="XWd1LqdxiURgioBI9aVz-73" vertex="1">
          <mxGeometry y="30" width="229.4507619047619" height="31.64835164835165" as="geometry" />
        </mxCell>
        <mxCell id="XWd1LqdxiURgioBI9aVz-78" value="" style="line;strokeWidth=1;fillColor=none;align=left;verticalAlign=middle;spacingTop=-1;spacingLeft=3;spacingRight=3;rotatable=0;labelPosition=right;points=[];portConstraint=eastwest;labelBackgroundColor=none;strokeColor=#E07A5F;fontColor=#393C56;rounded=1;" parent="XWd1LqdxiURgioBI9aVz-73" vertex="1">
          <mxGeometry y="61.64835164835165" width="229.4507619047619" height="6.32967032967033" as="geometry" />
        </mxCell>
        <mxCell id="XWd1LqdxiURgioBI9aVz-80" value="+ getStokBahanBaku()&lt;div&gt;+ ubahDataBahanBaku(bahan_baku)&lt;br&gt;+ getDataBahanBaku()&lt;br&gt;+ hapusDataBahanBaku (bahan_baku)&lt;/div&gt;" style="text;html=1;strokeColor=none;fillColor=none;align=left;verticalAlign=middle;spacingLeft=4;spacingRight=4;overflow=hidden;rotatable=0;points=[[0,0.5],[1,0.5]];portConstraint=eastwest;whiteSpace=wrap;labelBackgroundColor=none;fontColor=#393C56;rounded=1;" parent="XWd1LqdxiURgioBI9aVz-73" vertex="1">
          <mxGeometry y="67.97802197802199" width="229.4507619047619" height="88.61538461538463" as="geometry" />
        </mxCell>
        <mxCell id="XWd1LqdxiURgioBI9aVz-81" value="StaffPenjualan" style="swimlane;fontStyle=0;align=center;verticalAlign=top;childLayout=stackLayout;horizontal=1;startSize=30;horizontalStack=0;resizeParent=1;resizeParentMax=0;resizeLast=0;collapsible=0;marginBottom=0;html=1;whiteSpace=wrap;labelBackgroundColor=none;fillColor=#e1d5e7;strokeColor=#9673a6;rounded=1;" parent="1" vertex="1">
          <mxGeometry x="713.2444706666668" y="704.1098901098901" width="170" height="117.0332967032967" as="geometry" />
        </mxCell>
        <mxCell id="XWd1LqdxiURgioBI9aVz-82" value="- Id_staff : int&lt;br&gt;&lt;font color=&quot;#837c7c&quot;&gt;- Total_penjualan : int&lt;br&gt;&lt;/font&gt;" style="text;html=1;strokeColor=none;fillColor=none;align=left;verticalAlign=middle;spacingLeft=4;spacingRight=4;overflow=hidden;rotatable=0;points=[[0,0.5],[1,0.5]];portConstraint=eastwest;whiteSpace=wrap;labelBackgroundColor=none;fontColor=#393C56;rounded=1;" parent="XWd1LqdxiURgioBI9aVz-81" vertex="1">
          <mxGeometry y="30" width="170" height="31.648351648351646" as="geometry" />
        </mxCell>
        <mxCell id="XWd1LqdxiURgioBI9aVz-83" value="" style="line;strokeWidth=1;fillColor=none;align=left;verticalAlign=middle;spacingTop=-1;spacingLeft=3;spacingRight=3;rotatable=0;labelPosition=right;points=[];portConstraint=eastwest;labelBackgroundColor=none;strokeColor=#E07A5F;fontColor=#393C56;rounded=1;" parent="XWd1LqdxiURgioBI9aVz-81" vertex="1">
          <mxGeometry y="61.64835164835165" width="170" height="6.33" as="geometry" />
        </mxCell>
        <mxCell id="XWd1LqdxiURgioBI9aVz-84" value="+ setTotalPenjualan()&lt;br&gt;+ dapatkanTotalPenjualan()" style="text;html=1;strokeColor=none;fillColor=none;align=left;verticalAlign=middle;spacingLeft=4;spacingRight=4;overflow=hidden;rotatable=0;points=[[0,0.5],[1,0.5]];portConstraint=eastwest;whiteSpace=wrap;labelBackgroundColor=none;fontColor=#393C56;rounded=1;" parent="XWd1LqdxiURgioBI9aVz-81" vertex="1">
          <mxGeometry y="67.97835164835165" width="170" height="49.05494505494505" as="geometry" />
        </mxCell>
        <mxCell id="XWd1LqdxiURgioBI9aVz-85" value="StaffProduksi" style="swimlane;fontStyle=0;align=center;verticalAlign=top;childLayout=stackLayout;horizontal=1;startSize=30;horizontalStack=0;resizeParent=1;resizeParentMax=0;resizeLast=0;collapsible=0;marginBottom=0;html=1;whiteSpace=wrap;labelBackgroundColor=none;fillColor=#F2CC8F;strokeColor=#E07A5F;fontColor=#393C56;rounded=1;" parent="1" vertex="1">
          <mxGeometry x="15.033714285714268" y="295.05494505494505" width="181.97819047619046" height="117.03296703296704" as="geometry" />
        </mxCell>
        <mxCell id="XWd1LqdxiURgioBI9aVz-86" value="- Id_staff : int&lt;br&gt;&lt;font color=&quot;#837c7c&quot;&gt;- Total_produksi : int&lt;br&gt;&lt;/font&gt;" style="text;html=1;strokeColor=none;fillColor=none;align=left;verticalAlign=middle;spacingLeft=4;spacingRight=4;overflow=hidden;rotatable=0;points=[[0,0.5],[1,0.5]];portConstraint=eastwest;whiteSpace=wrap;labelBackgroundColor=none;fontColor=#393C56;rounded=1;" parent="XWd1LqdxiURgioBI9aVz-85" vertex="1">
          <mxGeometry y="30" width="181.97819047619046" height="31.648351648351646" as="geometry" />
        </mxCell>
        <mxCell id="XWd1LqdxiURgioBI9aVz-87" value="" style="line;strokeWidth=1;fillColor=none;align=left;verticalAlign=middle;spacingTop=-1;spacingLeft=3;spacingRight=3;rotatable=0;labelPosition=right;points=[];portConstraint=eastwest;labelBackgroundColor=none;strokeColor=#E07A5F;fontColor=#393C56;rounded=1;" parent="XWd1LqdxiURgioBI9aVz-85" vertex="1">
          <mxGeometry y="61.64835164835165" width="181.97819047619046" height="6.329670329670329" as="geometry" />
        </mxCell>
        <mxCell id="XWd1LqdxiURgioBI9aVz-88" value="+ aturTotalProduksi(StaffProduksi)&lt;br&gt;+ dapatkanTotalProduksi(StaffProduksi)" style="text;html=1;strokeColor=none;fillColor=none;align=left;verticalAlign=middle;spacingLeft=4;spacingRight=4;overflow=hidden;rotatable=0;points=[[0,0.5],[1,0.5]];portConstraint=eastwest;whiteSpace=wrap;labelBackgroundColor=none;fontColor=#393C56;rounded=1;" parent="XWd1LqdxiURgioBI9aVz-85" vertex="1">
          <mxGeometry y="67.97802197802199" width="181.97819047619046" height="33.230769230769226" as="geometry" />
        </mxCell>
        <mxCell id="XIjyqr4JSDa7rmxiRrNb-14" value="+ getStokBahanBaku(bahan_baku)" style="text;html=1;strokeColor=none;fillColor=none;align=left;verticalAlign=middle;spacingLeft=4;spacingRight=4;overflow=hidden;rotatable=0;points=[[0,0.5],[1,0.5]];portConstraint=eastwest;whiteSpace=wrap;labelBackgroundColor=none;fontColor=#393C56;rounded=1;" parent="XWd1LqdxiURgioBI9aVz-85" vertex="1">
          <mxGeometry y="101.20879120879121" width="181.97819047619046" height="15.824175824175823" as="geometry" />
        </mxCell>
        <mxCell id="z_JI0RrxL9cTQsVmLyIO-1" value="Pesanan" style="swimlane;fontStyle=0;align=center;verticalAlign=top;childLayout=stackLayout;horizontal=1;startSize=30;horizontalStack=0;resizeParent=1;resizeParentMax=0;resizeLast=0;collapsible=0;marginBottom=0;html=1;whiteSpace=wrap;labelBackgroundColor=none;fillColor=#e1d5e7;strokeColor=#9673a6;rounded=1;" parent="1" vertex="1">
          <mxGeometry x="1140.4976135238096" y="1042.7472527472528" width="174.06609523809524" height="204.06593406593404" as="geometry" />
        </mxCell>
        <mxCell id="z_JI0RrxL9cTQsVmLyIO-2" value="- Id_pesanan : Integer&lt;br&gt;- Nama_pelanggan : Integer&lt;br&gt;- Tanggal_pemesanan: Date&lt;br&gt;- id_pengiriman_melalui : int&lt;br&gt;- Status_pesanan: String&lt;br&gt;- id_metode_pembayaran: Integer&lt;br&gt;- Total_pembayaran: String&lt;br&gt;- Total_barang:int&lt;br&gt;&lt;div&gt;- Id_pelanggan:integer&lt;/div&gt;" style="text;html=1;strokeColor=none;fillColor=none;align=left;verticalAlign=middle;spacingLeft=4;spacingRight=4;overflow=hidden;rotatable=0;points=[[0,0.5],[1,0.5]];portConstraint=eastwest;whiteSpace=wrap;labelBackgroundColor=none;fontColor=#393C56;rounded=1;" parent="z_JI0RrxL9cTQsVmLyIO-1" vertex="1">
          <mxGeometry y="30" width="174.06609523809524" height="118.68131868131867" as="geometry" />
        </mxCell>
        <mxCell id="z_JI0RrxL9cTQsVmLyIO-3" value="" style="line;strokeWidth=1;fillColor=none;align=left;verticalAlign=middle;spacingTop=-1;spacingLeft=3;spacingRight=3;rotatable=0;labelPosition=right;points=[];portConstraint=eastwest;labelBackgroundColor=none;strokeColor=#E07A5F;fontColor=#393C56;rounded=1;" parent="z_JI0RrxL9cTQsVmLyIO-1" vertex="1">
          <mxGeometry y="148.68131868131866" width="174.06609523809524" height="6.329670329670329" as="geometry" />
        </mxCell>
        <mxCell id="z_JI0RrxL9cTQsVmLyIO-4" value="+ dapatkanDataPesanan()&lt;br&gt;+ aturStatusPesanan(Pesanan)&lt;br&gt;+ BuatPesanan(Pesanan)&lt;br&gt;+ deletePesanan(Pesanan)" style="text;html=1;strokeColor=none;fillColor=none;align=left;verticalAlign=middle;spacingLeft=4;spacingRight=4;overflow=hidden;rotatable=0;points=[[0,0.5],[1,0.5]];portConstraint=eastwest;whiteSpace=wrap;labelBackgroundColor=none;fontColor=#393C56;rounded=1;" parent="z_JI0RrxL9cTQsVmLyIO-1" vertex="1">
          <mxGeometry y="155.010989010989" width="174.06609523809524" height="49.05494505494505" as="geometry" />
        </mxCell>
        <mxCell id="z_JI0RrxL9cTQsVmLyIO-10" value="Komplain" style="swimlane;fontStyle=0;align=center;verticalAlign=top;childLayout=stackLayout;horizontal=1;startSize=30;horizontalStack=0;resizeParent=1;resizeParentMax=0;resizeLast=0;collapsible=0;marginBottom=0;html=1;whiteSpace=wrap;labelBackgroundColor=none;fillColor=#e1d5e7;strokeColor=#9673a6;rounded=1;" parent="1" vertex="1">
          <mxGeometry x="1114.81" y="530" width="280.88" height="201.82659340659342" as="geometry" />
        </mxCell>
        <mxCell id="z_JI0RrxL9cTQsVmLyIO-11" value="- Id_komplain: Integer&lt;br&gt;- Komentar: String&lt;br&gt;&lt;div&gt;- dibuat_tanggal : date&lt;/div&gt;&lt;div&gt;- id_retur_barang : int&lt;/div&gt;&lt;div&gt;- id_pesanan : int&lt;br&gt;&lt;/div&gt;" style="text;html=1;strokeColor=none;fillColor=none;align=left;verticalAlign=middle;spacingLeft=4;spacingRight=4;overflow=hidden;rotatable=0;points=[[0,0.5],[1,0.5]];portConstraint=eastwest;whiteSpace=wrap;labelBackgroundColor=none;fontColor=#393C56;rounded=1;" parent="z_JI0RrxL9cTQsVmLyIO-10" vertex="1">
          <mxGeometry y="30" width="280.88" height="75.16483516483517" as="geometry" />
        </mxCell>
        <mxCell id="z_JI0RrxL9cTQsVmLyIO-13" value="" style="line;strokeWidth=1;fillColor=none;align=left;verticalAlign=middle;spacingTop=-1;spacingLeft=3;spacingRight=3;rotatable=0;labelPosition=right;points=[];portConstraint=eastwest;labelBackgroundColor=none;strokeColor=#E07A5F;fontColor=#393C56;rounded=1;" parent="z_JI0RrxL9cTQsVmLyIO-10" vertex="1">
          <mxGeometry y="105.16483516483517" width="280.88" height="6.32967032967033" as="geometry" />
        </mxCell>
        <mxCell id="z_JI0RrxL9cTQsVmLyIO-12" value="..." style="text;html=1;strokeColor=none;fillColor=none;align=left;verticalAlign=middle;spacingLeft=4;spacingRight=4;overflow=hidden;rotatable=0;points=[[0,0.5],[1,0.5]];portConstraint=eastwest;whiteSpace=wrap;labelBackgroundColor=none;fontColor=#393C56;rounded=1;" parent="z_JI0RrxL9cTQsVmLyIO-10" vertex="1">
          <mxGeometry y="111.4945054945055" width="280.88" height="7.912087912087912" as="geometry" />
        </mxCell>
        <mxCell id="z_JI0RrxL9cTQsVmLyIO-14" value="+ getKomplainPelangganById(id_komentar)&lt;br&gt;+ getALLkomplain()&lt;br&gt;+ getKomplainByDate(date)&lt;br&gt;+ resolveKomplain(Boolean status, String tanggapanStaff)" style="text;html=1;strokeColor=none;fillColor=none;align=left;verticalAlign=middle;spacingLeft=4;spacingRight=4;overflow=hidden;rotatable=0;points=[[0,0.5],[1,0.5]];portConstraint=eastwest;whiteSpace=wrap;labelBackgroundColor=none;fontColor=#393C56;rounded=1;" parent="z_JI0RrxL9cTQsVmLyIO-10" vertex="1">
          <mxGeometry y="119.40659340659342" width="280.88" height="82.42" as="geometry" />
        </mxCell>
        <mxCell id="z_JI0RrxL9cTQsVmLyIO-15" value="&amp;nbsp;" style="swimlane;fontStyle=0;align=center;verticalAlign=top;childLayout=stackLayout;horizontal=1;startSize=30;horizontalStack=0;resizeParent=1;resizeParentMax=0;resizeLast=0;collapsible=0;marginBottom=0;html=1;whiteSpace=wrap;labelBackgroundColor=none;fillColor=#dae8fc;strokeColor=#6c8ebf;rounded=1;" parent="1" vertex="1">
          <mxGeometry x="600" y="180" width="233.35" height="188.2417582417582" as="geometry" />
        </mxCell>
        <mxCell id="z_JI0RrxL9cTQsVmLyIO-16" value="&lt;font color=&quot;#837c7c&quot;&gt;&amp;nbsp;&amp;nbsp;&amp;nbsp; - id_Admin int&lt;br&gt;&amp;nbsp;&amp;nbsp;&amp;nbsp; - id_staff int&lt;br&gt;&amp;nbsp;&amp;nbsp;&amp;nbsp; - Status &lt;br&gt;&amp;nbsp;&amp;nbsp;&amp;nbsp; - Keterangan &lt;/font&gt;" style="text;html=1;strokeColor=none;fillColor=none;align=left;verticalAlign=middle;spacingLeft=4;spacingRight=4;overflow=hidden;rotatable=0;points=[[0,0.5],[1,0.5]];portConstraint=eastwest;whiteSpace=wrap;labelBackgroundColor=none;fontColor=#393C56;rounded=1;" parent="z_JI0RrxL9cTQsVmLyIO-15" vertex="1">
          <mxGeometry y="30" width="233.35" height="63.296703296703285" as="geometry" />
        </mxCell>
        <mxCell id="z_JI0RrxL9cTQsVmLyIO-17" value="" style="line;strokeWidth=1;fillColor=none;align=left;verticalAlign=middle;spacingTop=-1;spacingLeft=3;spacingRight=3;rotatable=0;labelPosition=right;points=[];portConstraint=eastwest;labelBackgroundColor=none;strokeColor=#E07A5F;fontColor=#393C56;rounded=1;" parent="z_JI0RrxL9cTQsVmLyIO-15" vertex="1">
          <mxGeometry y="93.29670329670328" width="233.35" height="6.3296703296703285" as="geometry" />
        </mxCell>
        <mxCell id="z_JI0RrxL9cTQsVmLyIO-18" value="+ getAkunStaff(Staff)&lt;br&gt;+ deleteAkunStaff(id_staff)&lt;br&gt;+ updateAkunStaff(Staff)&lt;br&gt;+ Registerasi()&lt;br&gt;+ tambahStaff()&lt;br&gt;+ hapusStaff()" style="text;html=1;strokeColor=none;fillColor=none;align=left;verticalAlign=middle;spacingLeft=4;spacingRight=4;overflow=hidden;rotatable=0;points=[[0,0.5],[1,0.5]];portConstraint=eastwest;whiteSpace=wrap;labelBackgroundColor=none;fontColor=#393C56;rounded=1;" parent="z_JI0RrxL9cTQsVmLyIO-15" vertex="1">
          <mxGeometry y="99.6263736263736" width="233.35" height="88.6153846153846" as="geometry" />
        </mxCell>
        <mxCell id="mmxniwKp6CwRpEXjrttV-1" value="Pelanggan" style="swimlane;fontStyle=0;align=center;verticalAlign=top;childLayout=stackLayout;horizontal=1;startSize=30;horizontalStack=0;resizeParent=1;resizeParentMax=0;resizeLast=0;collapsible=0;marginBottom=0;html=1;whiteSpace=wrap;labelBackgroundColor=none;fillColor=#e1d5e7;strokeColor=#9673a6;rounded=1;" parent="1" vertex="1">
          <mxGeometry x="1464.8935182857144" y="844.945054945055" width="220" height="140.76428571428573" as="geometry" />
        </mxCell>
        <mxCell id="mmxniwKp6CwRpEXjrttV-2" value="- Id_pelanggan: Integer&lt;br&gt;- Nama_pelanggan: String&lt;br&gt;- Alamat: String&lt;br&gt;- No_telepon: Integer" style="text;html=1;strokeColor=none;fillColor=none;align=left;verticalAlign=middle;spacingLeft=4;spacingRight=4;overflow=hidden;rotatable=0;points=[[0,0.5],[1,0.5]];portConstraint=eastwest;whiteSpace=wrap;labelBackgroundColor=none;fontColor=#393C56;rounded=1;" parent="mmxniwKp6CwRpEXjrttV-1" vertex="1">
          <mxGeometry y="30" width="220" height="55.38461538461539" as="geometry" />
        </mxCell>
        <mxCell id="mmxniwKp6CwRpEXjrttV-3" value="" style="line;strokeWidth=1;fillColor=none;align=left;verticalAlign=middle;spacingTop=-1;spacingLeft=3;spacingRight=3;rotatable=0;labelPosition=right;points=[];portConstraint=eastwest;labelBackgroundColor=none;strokeColor=#E07A5F;fontColor=#393C56;rounded=1;" parent="mmxniwKp6CwRpEXjrttV-1" vertex="1">
          <mxGeometry y="85.38461538461539" width="220" height="6.32967032967033" as="geometry" />
        </mxCell>
        <mxCell id="mmxniwKp6CwRpEXjrttV-4" value="+ dapatkanDataPelanggan(Pelanggan)" style="text;html=1;strokeColor=none;fillColor=none;align=left;verticalAlign=middle;spacingLeft=4;spacingRight=4;overflow=hidden;rotatable=0;points=[[0,0.5],[1,0.5]];portConstraint=eastwest;whiteSpace=wrap;labelBackgroundColor=none;fontColor=#393C56;rounded=1;" parent="mmxniwKp6CwRpEXjrttV-1" vertex="1">
          <mxGeometry y="91.71428571428572" width="220" height="49.05" as="geometry" />
        </mxCell>
        <mxCell id="XIjyqr4JSDa7rmxiRrNb-24" style="edgeStyle=orthogonalEdgeStyle;rounded=1;orthogonalLoop=1;jettySize=auto;html=1;entryX=0.692;entryY=0.001;entryDx=0;entryDy=0;entryPerimeter=0;endArrow=none;endFill=0;exitX=0;exitY=0.5;exitDx=0;exitDy=0;labelBackgroundColor=none;strokeColor=#E07A5F;fontColor=default;" parent="1" source="XWd1LqdxiURgioBI9aVz-80" target="XWd1LqdxiURgioBI9aVz-32" edge="1">
          <mxGeometry relative="1" as="geometry" />
        </mxCell>
        <mxCell id="XIjyqr4JSDa7rmxiRrNb-25" value="mengurus" style="edgeLabel;html=1;align=center;verticalAlign=middle;resizable=0;points=[];fontSize=17;labelBackgroundColor=none;fontColor=#393C56;rounded=1;" parent="XIjyqr4JSDa7rmxiRrNb-24" vertex="1" connectable="0">
          <mxGeometry x="-0.4545" y="-3" relative="1" as="geometry">
            <mxPoint x="-38" y="-11" as="offset" />
          </mxGeometry>
        </mxCell>
        <mxCell id="XIjyqr4JSDa7rmxiRrNb-26" value="1" style="edgeLabel;html=1;align=center;verticalAlign=middle;resizable=0;points=[];fontSize=17;labelBackgroundColor=none;fontColor=#393C56;rounded=1;" parent="XIjyqr4JSDa7rmxiRrNb-24" vertex="1" connectable="0">
          <mxGeometry x="-0.8319" y="-2" relative="1" as="geometry">
            <mxPoint y="18" as="offset" />
          </mxGeometry>
        </mxCell>
        <mxCell id="XIjyqr4JSDa7rmxiRrNb-28" value="1..*" style="edgeLabel;html=1;align=center;verticalAlign=middle;resizable=0;points=[];fontSize=17;labelBackgroundColor=none;fontColor=#393C56;rounded=1;" parent="XIjyqr4JSDa7rmxiRrNb-24" vertex="1" connectable="0">
          <mxGeometry x="0.7703" y="-4" relative="1" as="geometry">
            <mxPoint x="22" y="20" as="offset" />
          </mxGeometry>
        </mxCell>
        <mxCell id="XIjyqr4JSDa7rmxiRrNb-39" style="edgeStyle=orthogonalEdgeStyle;rounded=1;orthogonalLoop=1;jettySize=auto;html=1;entryX=1.022;entryY=0.36;entryDx=0;entryDy=0;entryPerimeter=0;endArrow=none;endFill=0;labelBackgroundColor=none;strokeColor=#E07A5F;fontColor=default;" parent="1" source="XWd1LqdxiURgioBI9aVz-58" target="XWd1LqdxiURgioBI9aVz-26" edge="1">
          <mxGeometry relative="1" as="geometry" />
        </mxCell>
        <mxCell id="XIjyqr4JSDa7rmxiRrNb-40" value="Menyediakan" style="edgeLabel;html=1;align=center;verticalAlign=middle;resizable=0;points=[];fontSize=17;labelBackgroundColor=none;fontColor=#393C56;rounded=1;" parent="XIjyqr4JSDa7rmxiRrNb-39" vertex="1" connectable="0">
          <mxGeometry x="0.2086" relative="1" as="geometry">
            <mxPoint x="-47" y="-33" as="offset" />
          </mxGeometry>
        </mxCell>
        <mxCell id="XIjyqr4JSDa7rmxiRrNb-41" value="1" style="edgeLabel;html=1;align=center;verticalAlign=middle;resizable=0;points=[];labelBackgroundColor=none;fontColor=#393C56;rounded=1;fontSize=17;" parent="XIjyqr4JSDa7rmxiRrNb-39" vertex="1" connectable="0">
          <mxGeometry x="-0.7949" y="-2" relative="1" as="geometry">
            <mxPoint x="-2" y="27" as="offset" />
          </mxGeometry>
        </mxCell>
        <mxCell id="XIjyqr4JSDa7rmxiRrNb-42" value="1..*" style="edgeLabel;html=1;align=center;verticalAlign=middle;resizable=0;points=[];labelBackgroundColor=none;fontColor=#393C56;rounded=1;fontSize=17;" parent="XIjyqr4JSDa7rmxiRrNb-39" vertex="1" connectable="0">
          <mxGeometry x="0.78" y="-3" relative="1" as="geometry">
            <mxPoint y="-14" as="offset" />
          </mxGeometry>
        </mxCell>
        <mxCell id="XIjyqr4JSDa7rmxiRrNb-46" style="edgeStyle=orthogonalEdgeStyle;rounded=1;orthogonalLoop=1;jettySize=auto;html=1;entryX=-0.004;entryY=0.339;entryDx=0;entryDy=0;endArrow=none;endFill=0;labelBackgroundColor=none;strokeColor=#E07A5F;fontColor=default;entryPerimeter=0;exitX=1.011;exitY=0.871;exitDx=0;exitDy=0;exitPerimeter=0;" parent="1" target="z_JI0RrxL9cTQsVmLyIO-2" edge="1">
          <mxGeometry relative="1" as="geometry">
            <mxPoint x="847.7500897142857" y="797.4741098901098" as="sourcePoint" />
            <mxPoint x="1150.569710761905" y="1001.6439560439561" as="targetPoint" />
            <Array as="points">
              <mxPoint x="926.8710420952382" y="797.4725274725274" />
              <mxPoint x="926.8710420952382" y="1106.043956043956" />
              <mxPoint x="1147.6184992380952" y="1106.043956043956" />
            </Array>
          </mxGeometry>
        </mxCell>
        <mxCell id="XIjyqr4JSDa7rmxiRrNb-51" value="mengurus" style="edgeLabel;html=1;align=center;verticalAlign=middle;resizable=0;points=[];fontSize=16;labelBackgroundColor=none;fontColor=#393C56;rounded=1;" parent="XIjyqr4JSDa7rmxiRrNb-46" vertex="1" connectable="0">
          <mxGeometry x="0.1174" y="8" relative="1" as="geometry">
            <mxPoint x="42" y="-91" as="offset" />
          </mxGeometry>
        </mxCell>
        <mxCell id="XIjyqr4JSDa7rmxiRrNb-60" value="1" style="edgeLabel;html=1;align=center;verticalAlign=middle;resizable=0;points=[];fontSize=18;labelBackgroundColor=none;fontColor=#393C56;rounded=1;" parent="XIjyqr4JSDa7rmxiRrNb-46" vertex="1" connectable="0">
          <mxGeometry x="-0.8103" y="-3" relative="1" as="geometry">
            <mxPoint x="5" y="15" as="offset" />
          </mxGeometry>
        </mxCell>
        <mxCell id="XIjyqr4JSDa7rmxiRrNb-61" value="1..*" style="edgeLabel;html=1;align=center;verticalAlign=middle;resizable=0;points=[];fontSize=18;labelBackgroundColor=none;fontColor=#393C56;rounded=1;" parent="XIjyqr4JSDa7rmxiRrNb-46" vertex="1" connectable="0">
          <mxGeometry x="0.8396" y="-1" relative="1" as="geometry">
            <mxPoint x="-1" y="-21" as="offset" />
          </mxGeometry>
        </mxCell>
        <mxCell id="XIjyqr4JSDa7rmxiRrNb-47" style="edgeStyle=orthogonalEdgeStyle;rounded=1;orthogonalLoop=1;jettySize=auto;html=1;endArrow=none;endFill=0;entryX=0;entryY=0.5;entryDx=0;entryDy=0;labelBackgroundColor=none;strokeColor=#E07A5F;fontColor=default;exitX=1;exitY=0.5;exitDx=0;exitDy=0;" parent="1" source="XWd1LqdxiURgioBI9aVz-82" target="XWd1LqdxiURgioBI9aVz-50" edge="1">
          <mxGeometry relative="1" as="geometry">
            <mxPoint x="1080.8562396190475" y="844.945054945055" as="targetPoint" />
          </mxGeometry>
        </mxCell>
        <mxCell id="XIjyqr4JSDa7rmxiRrNb-50" value="mengurus" style="edgeLabel;html=1;align=center;verticalAlign=middle;resizable=0;points=[];fontSize=16;labelBackgroundColor=none;fontColor=#393C56;rounded=1;" parent="XIjyqr4JSDa7rmxiRrNb-47" vertex="1" connectable="0">
          <mxGeometry x="0.003" y="6" relative="1" as="geometry">
            <mxPoint x="27" y="61" as="offset" />
          </mxGeometry>
        </mxCell>
        <mxCell id="XIjyqr4JSDa7rmxiRrNb-59" value="1..*" style="edgeLabel;html=1;align=center;verticalAlign=middle;resizable=0;points=[];fontSize=18;labelBackgroundColor=none;fontColor=#393C56;rounded=1;" parent="XIjyqr4JSDa7rmxiRrNb-47" vertex="1" connectable="0">
          <mxGeometry x="0.906" y="1" relative="1" as="geometry">
            <mxPoint x="-6" y="-14" as="offset" />
          </mxGeometry>
        </mxCell>
        <mxCell id="6TOgSfj7vv-QfkdggQJr-13" value="1" style="edgeLabel;html=1;align=center;verticalAlign=middle;resizable=0;points=[];fontSize=17;rounded=1;" parent="XIjyqr4JSDa7rmxiRrNb-47" vertex="1" connectable="0">
          <mxGeometry x="-0.8327" y="7" relative="1" as="geometry">
            <mxPoint x="-7" y="-15" as="offset" />
          </mxGeometry>
        </mxCell>
        <mxCell id="XIjyqr4JSDa7rmxiRrNb-52" style="edgeStyle=orthogonalEdgeStyle;rounded=1;orthogonalLoop=1;jettySize=auto;html=1;entryX=0;entryY=0.5;entryDx=0;entryDy=0;endArrow=none;endFill=0;labelBackgroundColor=none;strokeColor=#E07A5F;fontColor=default;exitX=0.802;exitY=1.035;exitDx=0;exitDy=0;exitPerimeter=0;" parent="1" source="z_JI0RrxL9cTQsVmLyIO-14" target="XIjyqr4JSDa7rmxiRrNb-131" edge="1">
          <mxGeometry relative="1" as="geometry">
            <Array as="points">
              <mxPoint x="1328.441523809524" y="739.7142857142857" />
              <mxPoint x="1328.441523809524" y="875.010989010989" />
              <mxPoint x="1320.5294285714285" y="875.010989010989" />
              <mxPoint x="1320.5294285714285" y="987.3626373626373" />
              <mxPoint x="1274.6392761904763" y="987.3626373626373" />
            </Array>
          </mxGeometry>
        </mxCell>
        <mxCell id="XIjyqr4JSDa7rmxiRrNb-62" value="0..*" style="edgeLabel;html=1;align=center;verticalAlign=middle;resizable=0;points=[];fontSize=18;labelBackgroundColor=none;fontColor=#393C56;rounded=1;" parent="XIjyqr4JSDa7rmxiRrNb-52" vertex="1" connectable="0">
          <mxGeometry x="-0.6011" y="-6" relative="1" as="geometry">
            <mxPoint x="-4" y="-27" as="offset" />
          </mxGeometry>
        </mxCell>
        <mxCell id="XIjyqr4JSDa7rmxiRrNb-64" value="1" style="edgeLabel;html=1;align=center;verticalAlign=middle;resizable=0;points=[];fontSize=17;labelBackgroundColor=none;fontColor=#393C56;rounded=1;" parent="XIjyqr4JSDa7rmxiRrNb-52" vertex="1" connectable="0">
          <mxGeometry x="0.7441" y="-6" relative="1" as="geometry">
            <mxPoint x="-9" y="-14" as="offset" />
          </mxGeometry>
        </mxCell>
        <mxCell id="XIjyqr4JSDa7rmxiRrNb-93" value="&amp;nbsp;" style="edgeLabel;html=1;align=center;verticalAlign=middle;resizable=0;points=[];fontSize=17;rounded=1;" parent="XIjyqr4JSDa7rmxiRrNb-52" vertex="1" connectable="0">
          <mxGeometry x="-0.23" y="2" relative="1" as="geometry">
            <mxPoint x="13" y="59" as="offset" />
          </mxGeometry>
        </mxCell>
        <mxCell id="xvfXCg9nMK2wJOpqpjW8-24" value="merujuk pada " style="edgeLabel;html=1;align=center;verticalAlign=middle;resizable=0;points=[];fontSize=18;" parent="XIjyqr4JSDa7rmxiRrNb-52" vertex="1" connectable="0">
          <mxGeometry x="0.2027" y="-2" relative="1" as="geometry">
            <mxPoint x="41" y="-60" as="offset" />
          </mxGeometry>
        </mxCell>
        <mxCell id="XIjyqr4JSDa7rmxiRrNb-53" style="edgeStyle=orthogonalEdgeStyle;rounded=1;orthogonalLoop=1;jettySize=auto;html=1;entryX=-0.147;entryY=0.472;entryDx=0;entryDy=0;entryPerimeter=0;endArrow=none;endFill=0;labelBackgroundColor=none;strokeColor=#E07A5F;fontColor=default;exitX=1.014;exitY=0.108;exitDx=0;exitDy=0;exitPerimeter=0;arcSize=30;" parent="1" source="z_JI0RrxL9cTQsVmLyIO-2" target="XIjyqr4JSDa7rmxiRrNb-122" edge="1">
          <mxGeometry relative="1" as="geometry">
            <mxPoint x="1120.4167158095238" y="1026.923076923077" as="sourcePoint" />
            <Array as="points">
              <mxPoint x="1401.5967563809522" y="1079.142857142857" />
              <mxPoint x="1401.5967563809522" y="907.4505494505494" />
            </Array>
          </mxGeometry>
        </mxCell>
        <mxCell id="XIjyqr4JSDa7rmxiRrNb-63" value="0..*" style="edgeLabel;html=1;align=center;verticalAlign=middle;resizable=0;points=[];fontSize=18;labelBackgroundColor=none;fontColor=#393C56;rounded=1;" parent="XIjyqr4JSDa7rmxiRrNb-53" vertex="1" connectable="0">
          <mxGeometry x="-0.7217" y="-3" relative="1" as="geometry">
            <mxPoint x="-36" y="-26" as="offset" />
          </mxGeometry>
        </mxCell>
        <mxCell id="XIjyqr4JSDa7rmxiRrNb-65" value="1" style="edgeLabel;html=1;align=center;verticalAlign=middle;resizable=0;points=[];fontSize=18;labelBackgroundColor=none;fontColor=#393C56;rounded=1;" parent="XIjyqr4JSDa7rmxiRrNb-53" vertex="1" connectable="0">
          <mxGeometry x="0.8367" y="-1" relative="1" as="geometry">
            <mxPoint x="-11" y="30" as="offset" />
          </mxGeometry>
        </mxCell>
        <mxCell id="XIjyqr4JSDa7rmxiRrNb-92" value="memiliki" style="edgeLabel;html=1;align=center;verticalAlign=middle;resizable=0;points=[];fontSize=17;rounded=1;" parent="XIjyqr4JSDa7rmxiRrNb-53" vertex="1" connectable="0">
          <mxGeometry x="0.1196" y="2" relative="1" as="geometry">
            <mxPoint y="-25" as="offset" />
          </mxGeometry>
        </mxCell>
        <mxCell id="XIjyqr4JSDa7rmxiRrNb-86" value="Extends" style="endArrow=block;endSize=16;endFill=0;html=1;rounded=1;exitX=0;exitY=0.5;exitDx=0;exitDy=0;entryX=1.041;entryY=0.661;entryDx=0;entryDy=0;entryPerimeter=0;edgeStyle=orthogonalEdgeStyle;labelBackgroundColor=none;strokeColor=#E07A5F;fontColor=default;" parent="1" source="z_JI0RrxL9cTQsVmLyIO-16" target="XWd1LqdxiURgioBI9aVz-66" edge="1">
          <mxGeometry width="160" relative="1" as="geometry">
            <mxPoint x="165.36352380952383" y="512.6373626373627" as="sourcePoint" />
            <mxPoint x="291.95704761904767" y="512.6373626373627" as="targetPoint" />
          </mxGeometry>
        </mxCell>
        <mxCell id="XIjyqr4JSDa7rmxiRrNb-96" value="Extends" style="endArrow=block;endSize=16;endFill=0;html=1;rounded=1;entryX=0.278;entryY=1.069;entryDx=0;entryDy=0;exitX=0.75;exitY=0;exitDx=0;exitDy=0;edgeStyle=orthogonalEdgeStyle;entryPerimeter=0;fillColor=#f8cecc;strokeColor=#b85450;" parent="1" source="XWd1LqdxiURgioBI9aVz-73" target="XWd1LqdxiURgioBI9aVz-71" edge="1">
          <mxGeometry x="0.184" width="160" relative="1" as="geometry">
            <mxPoint x="181.18771428571426" y="639.2307692307692" as="sourcePoint" />
            <mxPoint x="394.8142857142857" y="433.5164835164835" as="targetPoint" />
            <Array as="points">
              <mxPoint x="108.39643809523807" y="544.2857142857142" />
              <mxPoint x="310.9460761904761" y="544.2857142857142" />
            </Array>
            <mxPoint as="offset" />
          </mxGeometry>
        </mxCell>
        <mxCell id="XIjyqr4JSDa7rmxiRrNb-97" value="Extends" style="endArrow=block;endSize=16;endFill=0;html=1;rounded=1;exitX=0.5;exitY=0;exitDx=0;exitDy=0;entryX=0.528;entryY=1.019;entryDx=0;entryDy=0;edgeStyle=orthogonalEdgeStyle;entryPerimeter=0;fillColor=#f8cecc;strokeColor=#b85450;" parent="1" source="XWd1LqdxiURgioBI9aVz-81" target="XWd1LqdxiURgioBI9aVz-71" edge="1">
          <mxGeometry width="160" relative="1" as="geometry">
            <mxPoint x="150.33054285714286" y="615.4945054945055" as="sourcePoint" />
            <mxPoint x="340.22082857142846" y="492.0659340659341" as="targetPoint" />
            <Array as="points">
              <mxPoint x="418.5505714285714" y="544.2857142857142" />
              <mxPoint x="342.5944571428572" y="544.2857142857142" />
            </Array>
          </mxGeometry>
        </mxCell>
        <mxCell id="XIjyqr4JSDa7rmxiRrNb-103" value="" style="rhombus;whiteSpace=wrap;html=1;fillStyle=auto;fillColor=#000000;strokeColor=#d79b00;rounded=1;rotation=-180;" parent="1" vertex="1">
          <mxGeometry x="-507.16457142857143" y="575.9340659340659" width="31.648380952380954" height="15.824175824175823" as="geometry" />
        </mxCell>
        <mxCell id="XIjyqr4JSDa7rmxiRrNb-122" value="" style="rhombus;whiteSpace=wrap;html=1;fillStyle=auto;fillColor=#000000;strokeColor=#d79b00;rotation=0;rounded=0;" parent="1" vertex="1">
          <mxGeometry x="1433.2451373333333" y="900.3296703296703" width="31.648380952380954" height="15.824175824175823" as="geometry" />
        </mxCell>
        <mxCell id="XIjyqr4JSDa7rmxiRrNb-131" value="" style="rhombus;whiteSpace=wrap;html=1;fillStyle=auto;fillColor=#000000;strokeColor=#d79b00;rotation=90;rounded=1;" parent="1" vertex="1">
          <mxGeometry x="1259.179042095238" y="1019.010989010989" width="31.648380952380954" height="15.824175824175823" as="geometry" />
        </mxCell>
        <mxCell id="XIjyqr4JSDa7rmxiRrNb-133" value="Extends" style="endArrow=block;endSize=16;endFill=0;html=1;rounded=1;exitX=1.03;exitY=0.663;exitDx=0;exitDy=0;entryX=-0.022;entryY=0.676;entryDx=0;entryDy=0;entryPerimeter=0;edgeStyle=orthogonalEdgeStyle;labelBackgroundColor=none;strokeColor=#E07A5F;fontColor=default;exitPerimeter=0;" parent="1" source="XWd1LqdxiURgioBI9aVz-86" target="XWd1LqdxiURgioBI9aVz-66" edge="1">
          <mxGeometry x="-0.0032" width="160" relative="1" as="geometry">
            <mxPoint x="568.8803809523808" y="344.90109890109886" as="sourcePoint" />
            <mxPoint x="416.1769428571429" y="409.78021978021974" as="targetPoint" />
            <mxPoint as="offset" />
          </mxGeometry>
        </mxCell>
        <mxCell id="6TOgSfj7vv-QfkdggQJr-10" value="" style="endArrow=diamondThin;endFill=1;endSize=24;html=1;rounded=1;entryX=0.442;entryY=0.004;entryDx=0;entryDy=0;exitX=0.482;exitY=1.041;exitDx=0;exitDy=0;exitPerimeter=0;edgeStyle=orthogonalEdgeStyle;entryPerimeter=0;fillColor=#ffe6cc;strokeColor=#0A0700;" parent="1" source="XWd1LqdxiURgioBI9aVz-55" edge="1">
          <mxGeometry width="160" relative="1" as="geometry">
            <mxPoint x="1234.2795834358099" y="911.5284395604396" as="sourcePoint" />
            <mxPoint x="1203.7943754285714" y="1043.5384615384614" as="targetPoint" />
            <Array as="points">
              <mxPoint x="1200" y="933" />
              <mxPoint x="1200" y="987" />
              <mxPoint x="1204" y="987" />
            </Array>
          </mxGeometry>
        </mxCell>
        <mxCell id="6TOgSfj7vv-QfkdggQJr-14" value="Merujuk pada" style="edgeLabel;html=1;align=center;verticalAlign=middle;resizable=0;points=[];fontSize=17;rounded=1;" parent="6TOgSfj7vv-QfkdggQJr-10" vertex="1" connectable="0">
          <mxGeometry x="0.0205" y="1" relative="1" as="geometry">
            <mxPoint as="offset" />
          </mxGeometry>
        </mxCell>
        <mxCell id="6TOgSfj7vv-QfkdggQJr-15" value="1" style="edgeLabel;html=1;align=center;verticalAlign=middle;resizable=0;points=[];fontSize=17;rounded=1;" parent="6TOgSfj7vv-QfkdggQJr-10" vertex="1" connectable="0">
          <mxGeometry x="0.4572" y="2" relative="1" as="geometry">
            <mxPoint x="17" y="9" as="offset" />
          </mxGeometry>
        </mxCell>
        <mxCell id="6TOgSfj7vv-QfkdggQJr-16" value="1" style="edgeLabel;html=1;align=center;verticalAlign=middle;resizable=0;points=[];fontSize=17;rounded=1;" parent="6TOgSfj7vv-QfkdggQJr-10" vertex="1" connectable="0">
          <mxGeometry x="-0.5407" y="3" relative="1" as="geometry">
            <mxPoint x="-16" y="3" as="offset" />
          </mxGeometry>
        </mxCell>
        <mxCell id="6TOgSfj7vv-QfkdggQJr-26" value="" style="endArrow=diamondThin;endFill=1;endSize=24;html=1;rounded=1;edgeStyle=orthogonalEdgeStyle;fillColor=#ffe6cc;strokeColor=#211800;entryX=1.019;entryY=0.078;entryDx=0;entryDy=0;entryPerimeter=0;exitX=-0.037;exitY=0.59;exitDx=0;exitDy=0;exitPerimeter=0;" parent="1" source="51TB43XSlWNsoCygn02c-4" target="XWd1LqdxiURgioBI9aVz-39" edge="1">
          <mxGeometry width="160" relative="1" as="geometry">
            <mxPoint x="1004.0456190476191" y="1169.3406593406594" as="sourcePoint" />
            <mxPoint x="-198.59285714285716" y="868.6813186813187" as="targetPoint" />
          </mxGeometry>
        </mxCell>
        <mxCell id="6TOgSfj7vv-QfkdggQJr-27" value="1" style="edgeLabel;html=1;align=center;verticalAlign=middle;resizable=0;points=[];fontSize=17;rounded=1;" parent="6TOgSfj7vv-QfkdggQJr-26" vertex="1" connectable="0">
          <mxGeometry x="-0.9127" y="-1" relative="1" as="geometry">
            <mxPoint as="offset" />
          </mxGeometry>
        </mxCell>
        <mxCell id="6TOgSfj7vv-QfkdggQJr-28" value="1..*" style="edgeLabel;html=1;align=center;verticalAlign=middle;resizable=0;points=[];fontSize=17;rounded=1;" parent="6TOgSfj7vv-QfkdggQJr-26" vertex="1" connectable="0">
          <mxGeometry x="0.9365" y="-2" relative="1" as="geometry">
            <mxPoint x="29" as="offset" />
          </mxGeometry>
        </mxCell>
        <mxCell id="6TOgSfj7vv-QfkdggQJr-30" value="Merujuk pada" style="edgeLabel;html=1;align=center;verticalAlign=middle;resizable=0;points=[];fontSize=17;rounded=1;" parent="6TOgSfj7vv-QfkdggQJr-26" vertex="1" connectable="0">
          <mxGeometry x="0.2817" relative="1" as="geometry">
            <mxPoint x="-519" y="-6" as="offset" />
          </mxGeometry>
        </mxCell>
        <mxCell id="51TB43XSlWNsoCygn02c-1" value="Detail_Pesanan" style="swimlane;fontStyle=0;align=center;verticalAlign=top;childLayout=stackLayout;horizontal=1;startSize=30;horizontalStack=0;resizeParent=1;resizeParentMax=0;resizeLast=0;collapsible=0;marginBottom=0;html=1;whiteSpace=wrap;labelBackgroundColor=none;fillColor=#e1d5e7;strokeColor=#9673a6;rounded=1;" parent="1" vertex="1">
          <mxGeometry x="1433.2451373333333" y="1185.164835164835" width="267.06486266666667" height="124.94505494505495" as="geometry" />
        </mxCell>
        <mxCell id="51TB43XSlWNsoCygn02c-2" value="&lt;div&gt;- Id_pesanan : Integer&lt;/div&gt;- Nama_barang : &amp;lt;list&amp;gt;Produk" style="text;html=1;strokeColor=none;fillColor=none;align=left;verticalAlign=middle;spacingLeft=4;spacingRight=4;overflow=hidden;rotatable=0;points=[[0,0.5],[1,0.5]];portConstraint=eastwest;whiteSpace=wrap;labelBackgroundColor=none;fontColor=#393C56;rounded=1;" parent="51TB43XSlWNsoCygn02c-1" vertex="1">
          <mxGeometry y="30" width="267.06486266666667" height="39.56043956043956" as="geometry" />
        </mxCell>
        <mxCell id="51TB43XSlWNsoCygn02c-3" value="" style="line;strokeWidth=1;fillColor=none;align=left;verticalAlign=middle;spacingTop=-1;spacingLeft=3;spacingRight=3;rotatable=0;labelPosition=right;points=[];portConstraint=eastwest;labelBackgroundColor=none;strokeColor=#E07A5F;fontColor=#393C56;rounded=1;" parent="51TB43XSlWNsoCygn02c-1" vertex="1">
          <mxGeometry y="69.56043956043956" width="267.06486266666667" height="6.329670329670329" as="geometry" />
        </mxCell>
        <mxCell id="51TB43XSlWNsoCygn02c-4" value="&lt;div&gt;+getListBarang(Pesanan)&lt;/div&gt;&lt;div&gt;+addNamaBarangToList(Pesanan, Produk)&lt;/div&gt;&lt;div&gt;+removeBarang(Pesanan, Produk)&lt;br&gt;&lt;/div&gt;" style="text;html=1;strokeColor=none;fillColor=none;align=left;verticalAlign=middle;spacingLeft=4;spacingRight=4;overflow=hidden;rotatable=0;points=[[0,0.5],[1,0.5]];portConstraint=eastwest;whiteSpace=wrap;labelBackgroundColor=none;fontColor=#393C56;rounded=1;" parent="51TB43XSlWNsoCygn02c-1" vertex="1">
          <mxGeometry y="75.8901098901099" width="267.06486266666667" height="49.05494505494505" as="geometry" />
        </mxCell>
        <mxCell id="xvfXCg9nMK2wJOpqpjW8-1" value="Divisi" style="swimlane;fontStyle=0;align=center;verticalAlign=top;childLayout=stackLayout;horizontal=1;startSize=30;horizontalStack=0;resizeParent=1;resizeParentMax=0;resizeLast=0;collapsible=0;marginBottom=0;html=1;whiteSpace=wrap;labelBackgroundColor=none;fillColor=#dae8fc;strokeColor=#6c8ebf;rounded=1;" parent="1" vertex="1">
          <mxGeometry x="561.7594952380953" y="421.64835164835165" width="126.59352380952382" height="126.52747252747253" as="geometry" />
        </mxCell>
        <mxCell id="mz6Z6sb08Zv7QSQIJ6Me-19" value="&lt;div&gt;&lt;font color=&quot;#837c7c&quot;&gt;- id_divisi : int&lt;br&gt;&lt;/font&gt;&lt;/div&gt;&lt;div&gt;&lt;font color=&quot;#837c7c&quot;&gt;- nama _divisi : String&lt;br&gt;&lt;/font&gt;&lt;/div&gt;" style="text;html=1;strokeColor=none;fillColor=none;align=left;verticalAlign=middle;spacingLeft=4;spacingRight=4;overflow=hidden;rotatable=0;points=[[0,0.5],[1,0.5]];portConstraint=eastwest;whiteSpace=wrap;labelBackgroundColor=none;fontColor=#393C56;rounded=1;" parent="xvfXCg9nMK2wJOpqpjW8-1" vertex="1">
          <mxGeometry y="30" width="126.59352380952382" height="47.47252747252747" as="geometry" />
        </mxCell>
        <mxCell id="xvfXCg9nMK2wJOpqpjW8-4" value="+ setDivisi(id_divisi)&lt;br&gt;+ getAllDivisi()&lt;br&gt;+ deleteDivisi(id_divisi)&lt;br&gt;+ updateDivis(id_Divisi)" style="text;html=1;strokeColor=none;fillColor=none;align=left;verticalAlign=middle;spacingLeft=4;spacingRight=4;overflow=hidden;rotatable=0;points=[[0,0.5],[1,0.5]];portConstraint=eastwest;whiteSpace=wrap;labelBackgroundColor=none;fontColor=#393C56;rounded=1;" parent="xvfXCg9nMK2wJOpqpjW8-1" vertex="1">
          <mxGeometry y="77.47252747252747" width="126.59352380952382" height="49.05494505494505" as="geometry" />
        </mxCell>
        <mxCell id="xvfXCg9nMK2wJOpqpjW8-5" value="Jabatan" style="swimlane;fontStyle=0;align=center;verticalAlign=top;childLayout=stackLayout;horizontal=1;startSize=30;horizontalStack=0;resizeParent=1;resizeParentMax=0;resizeLast=0;collapsible=0;marginBottom=0;html=1;whiteSpace=wrap;labelBackgroundColor=none;fillColor=#dae8fc;strokeColor=#6c8ebf;rounded=1;" parent="1" vertex="1">
          <mxGeometry x="420.0023809523808" y="110" width="150.32980952380953" height="117.03296703296704" as="geometry" />
        </mxCell>
        <mxCell id="xvfXCg9nMK2wJOpqpjW8-6" value="&lt;div&gt;&lt;font color=&quot;#837c7c&quot;&gt;- id_Jabatan : int&lt;/font&gt;&lt;/div&gt;&lt;div&gt;&lt;font color=&quot;#837c7c&quot;&gt;- nama_jabatan:String&lt;br&gt;&lt;/font&gt;&lt;/div&gt;" style="text;html=1;strokeColor=none;fillColor=none;align=left;verticalAlign=middle;spacingLeft=4;spacingRight=4;overflow=hidden;rotatable=0;points=[[0,0.5],[1,0.5]];portConstraint=eastwest;whiteSpace=wrap;labelBackgroundColor=none;fontColor=#393C56;rounded=1;" parent="xvfXCg9nMK2wJOpqpjW8-5" vertex="1">
          <mxGeometry y="30" width="150.32980952380953" height="31.648351648351646" as="geometry" />
        </mxCell>
        <mxCell id="xvfXCg9nMK2wJOpqpjW8-7" value="" style="line;strokeWidth=1;fillColor=none;align=left;verticalAlign=middle;spacingTop=-1;spacingLeft=3;spacingRight=3;rotatable=0;labelPosition=right;points=[];portConstraint=eastwest;labelBackgroundColor=none;strokeColor=#E07A5F;fontColor=#393C56;rounded=1;" parent="xvfXCg9nMK2wJOpqpjW8-5" vertex="1">
          <mxGeometry y="61.64835164835165" width="150.32980952380953" height="6.329670329670329" as="geometry" />
        </mxCell>
        <mxCell id="xvfXCg9nMK2wJOpqpjW8-8" value="+ setJabatan(id_jabatan)&lt;br&gt;+ getAllJabatan()&lt;br&gt;+ deleteJabatan(jabatan)&lt;br&gt;+ updateJabatan(id_jabatan)" style="text;html=1;strokeColor=none;fillColor=none;align=left;verticalAlign=middle;spacingLeft=4;spacingRight=4;overflow=hidden;rotatable=0;points=[[0,0.5],[1,0.5]];portConstraint=eastwest;whiteSpace=wrap;labelBackgroundColor=none;fontColor=#393C56;rounded=1;" parent="xvfXCg9nMK2wJOpqpjW8-5" vertex="1">
          <mxGeometry y="67.97802197802199" width="150.32980952380953" height="49.05494505494505" as="geometry" />
        </mxCell>
        <mxCell id="xvfXCg9nMK2wJOpqpjW8-13" value="" style="endArrow=diamondThin;endFill=1;endSize=24;html=1;rounded=0;entryX=0.456;entryY=-0.019;entryDx=0;entryDy=0;entryPerimeter=0;edgeStyle=orthogonalEdgeStyle;" parent="1" target="XWd1LqdxiURgioBI9aVz-64" edge="1">
          <mxGeometry width="160" relative="1" as="geometry">
            <mxPoint x="420" y="170" as="sourcePoint" />
            <mxPoint x="402.72638095238085" y="433.5164835164835" as="targetPoint" />
          </mxGeometry>
        </mxCell>
        <mxCell id="xvfXCg9nMK2wJOpqpjW8-25" value="1..*" style="edgeLabel;html=1;align=center;verticalAlign=middle;resizable=0;points=[];fontSize=17;" parent="xvfXCg9nMK2wJOpqpjW8-13" vertex="1" connectable="0">
          <mxGeometry x="-0.741" y="3" relative="1" as="geometry">
            <mxPoint x="-17" as="offset" />
          </mxGeometry>
        </mxCell>
        <mxCell id="xvfXCg9nMK2wJOpqpjW8-26" value="1" style="edgeLabel;html=1;align=center;verticalAlign=middle;resizable=0;points=[];fontSize=17;" parent="xvfXCg9nMK2wJOpqpjW8-13" vertex="1" connectable="0">
          <mxGeometry x="0.4391" relative="1" as="geometry">
            <mxPoint x="11" as="offset" />
          </mxGeometry>
        </mxCell>
        <mxCell id="xvfXCg9nMK2wJOpqpjW8-27" value="Mempunyai " style="edgeLabel;html=1;align=center;verticalAlign=middle;resizable=0;points=[];fontSize=17;" parent="xvfXCg9nMK2wJOpqpjW8-13" vertex="1" connectable="0">
          <mxGeometry x="-0.0249" y="2" relative="1" as="geometry">
            <mxPoint x="-26" y="8" as="offset" />
          </mxGeometry>
        </mxCell>
        <mxCell id="xvfXCg9nMK2wJOpqpjW8-17" value="" style="endArrow=diamondThin;endFill=1;endSize=24;html=1;rounded=0;exitX=-0.036;exitY=0.262;exitDx=0;exitDy=0;exitPerimeter=0;edgeStyle=orthogonalEdgeStyle;" parent="1" source="51TB43XSlWNsoCygn02c-2" target="z_JI0RrxL9cTQsVmLyIO-2" edge="1">
          <mxGeometry width="160" relative="1" as="geometry">
            <mxPoint x="1267.0911373333333" y="1264.2857142857142" as="sourcePoint" />
            <mxPoint x="1393.6846611428573" y="1264.2857142857142" as="targetPoint" />
          </mxGeometry>
        </mxCell>
        <mxCell id="xvfXCg9nMK2wJOpqpjW8-18" value="1" style="edgeLabel;html=1;align=center;verticalAlign=middle;resizable=0;points=[];fontSize=17;" parent="xvfXCg9nMK2wJOpqpjW8-17" vertex="1" connectable="0">
          <mxGeometry x="0.6822" y="5" relative="1" as="geometry">
            <mxPoint as="offset" />
          </mxGeometry>
        </mxCell>
        <mxCell id="xvfXCg9nMK2wJOpqpjW8-19" value="1..*" style="edgeLabel;html=1;align=center;verticalAlign=middle;resizable=0;points=[];fontSize=17;" parent="xvfXCg9nMK2wJOpqpjW8-17" vertex="1" connectable="0">
          <mxGeometry x="-0.8228" y="-2" relative="1" as="geometry">
            <mxPoint as="offset" />
          </mxGeometry>
        </mxCell>
        <mxCell id="xvfXCg9nMK2wJOpqpjW8-21" value="mempunyai" style="edgeLabel;html=1;align=center;verticalAlign=middle;resizable=0;points=[];fontSize=17;" parent="xvfXCg9nMK2wJOpqpjW8-17" vertex="1" connectable="0">
          <mxGeometry x="-0.0127" y="-3" relative="1" as="geometry">
            <mxPoint as="offset" />
          </mxGeometry>
        </mxCell>
        <mxCell id="xvfXCg9nMK2wJOpqpjW8-22" value="" style="rhombus;whiteSpace=wrap;html=1;fillStyle=auto;fillColor=#000000;strokeColor=#d79b00;rounded=1;" parent="1" vertex="1">
          <mxGeometry x="-421.6531428571429" y="814.4506593406593" width="31.648380952380954" height="15.824175824175823" as="geometry" />
        </mxCell>
        <mxCell id="XIjyqr4JSDa7rmxiRrNb-104" value="" style="edgeStyle=orthogonalEdgeStyle;rounded=1;orthogonalLoop=1;jettySize=auto;html=1;endArrow=none;endFill=0;labelBackgroundColor=none;strokeColor=#E07A5F;fontColor=default;startSize=13;exitX=1.006;exitY=0.256;exitDx=0;exitDy=0;exitPerimeter=0;entryX=1.063;entryY=0.475;entryDx=0;entryDy=0;entryPerimeter=0;" parent="1" source="XWd1LqdxiURgioBI9aVz-42" target="XIjyqr4JSDa7rmxiRrNb-103" edge="1">
          <mxGeometry relative="1" as="geometry">
            <mxPoint x="-451.7799047619048" y="579.8901098901099" as="sourcePoint" />
            <mxPoint x="-594.197619047619" y="662.967032967033" as="targetPoint" />
            <Array as="points">
              <mxPoint x="-515.0766666666666" y="649.5164835164835" />
              <mxPoint x="-515.0766666666666" y="584.6373626373626" />
            </Array>
          </mxGeometry>
        </mxCell>
        <mxCell id="XIjyqr4JSDa7rmxiRrNb-105" value="1..*" style="edgeLabel;html=1;align=center;verticalAlign=middle;resizable=0;points=[];labelBackgroundColor=none;fontColor=#393C56;rounded=1;fontSize=17;" parent="XIjyqr4JSDa7rmxiRrNb-104" vertex="1" connectable="0">
          <mxGeometry x="-0.7653" y="-3" relative="1" as="geometry">
            <mxPoint x="2" y="-25" as="offset" />
          </mxGeometry>
        </mxCell>
        <mxCell id="xvfXCg9nMK2wJOpqpjW8-15" value="1" style="edgeLabel;html=1;align=center;verticalAlign=middle;resizable=0;points=[];fontSize=17;" parent="XIjyqr4JSDa7rmxiRrNb-104" vertex="1" connectable="0">
          <mxGeometry x="0.7667" y="2" relative="1" as="geometry">
            <mxPoint x="2" y="5" as="offset" />
          </mxGeometry>
        </mxCell>
        <mxCell id="xvfXCg9nMK2wJOpqpjW8-23" value="Disimpan" style="edgeLabel;html=1;align=center;verticalAlign=middle;resizable=0;points=[];fontSize=17;labelBackgroundColor=none;fontColor=#393C56;rounded=1;" parent="1" vertex="1" connectable="0">
          <mxGeometry x="-578.3734285714283" y="599.6703274131098" as="geometry" />
        </mxCell>
        <mxCell id="mz6Z6sb08Zv7QSQIJ6Me-2" value="" style="endArrow=diamondThin;endFill=1;endSize=24;html=1;rounded=0;exitX=-0.02;exitY=0.406;exitDx=0;exitDy=0;exitPerimeter=0;edgeStyle=orthogonalEdgeStyle;" parent="1" source="xvfXCg9nMK2wJOpqpjW8-4" target="XWd1LqdxiURgioBI9aVz-71" edge="1">
          <mxGeometry width="160" relative="1" as="geometry">
            <mxPoint x="455.73741904761914" y="378.9230769230769" as="sourcePoint" />
            <mxPoint x="450.1989523809523" y="537.1648351648352" as="targetPoint" />
          </mxGeometry>
        </mxCell>
        <mxCell id="mz6Z6sb08Zv7QSQIJ6Me-3" value="1" style="edgeLabel;html=1;align=center;verticalAlign=middle;resizable=0;points=[];fontSize=17;" parent="mz6Z6sb08Zv7QSQIJ6Me-2" vertex="1" connectable="0">
          <mxGeometry x="-0.741" y="3" relative="1" as="geometry">
            <mxPoint as="offset" />
          </mxGeometry>
        </mxCell>
        <mxCell id="mz6Z6sb08Zv7QSQIJ6Me-4" value="1" style="edgeLabel;html=1;align=center;verticalAlign=middle;resizable=0;points=[];fontSize=17;" parent="mz6Z6sb08Zv7QSQIJ6Me-2" vertex="1" connectable="0">
          <mxGeometry x="0.4391" relative="1" as="geometry">
            <mxPoint as="offset" />
          </mxGeometry>
        </mxCell>
        <mxCell id="mz6Z6sb08Zv7QSQIJ6Me-5" value="Mempunyai " style="edgeLabel;html=1;align=center;verticalAlign=middle;resizable=0;points=[];fontSize=17;" parent="mz6Z6sb08Zv7QSQIJ6Me-2" vertex="1" connectable="0">
          <mxGeometry x="-0.0249" y="2" relative="1" as="geometry">
            <mxPoint x="22" y="-38" as="offset" />
          </mxGeometry>
        </mxCell>
        <mxCell id="mz6Z6sb08Zv7QSQIJ6Me-10" style="edgeStyle=orthogonalEdgeStyle;rounded=0;orthogonalLoop=1;jettySize=auto;html=1;" parent="1" source="mz6Z6sb08Zv7QSQIJ6Me-6" target="XWd1LqdxiURgioBI9aVz-66" edge="1">
          <mxGeometry relative="1" as="geometry">
            <Array as="points">
              <mxPoint x="228.6602857142857" y="140.76923076923077" />
              <mxPoint x="228.6602857142857" y="338.57142857142856" />
            </Array>
          </mxGeometry>
        </mxCell>
        <mxCell id="mz6Z6sb08Zv7QSQIJ6Me-6" value="Departemen" style="swimlane;fontStyle=0;align=center;verticalAlign=top;childLayout=stackLayout;horizontal=1;startSize=30;horizontalStack=0;resizeParent=1;resizeParentMax=0;resizeLast=0;collapsible=0;marginBottom=0;html=1;whiteSpace=wrap;labelBackgroundColor=none;fillColor=#dae8fc;strokeColor=#6c8ebf;rounded=1;" parent="1" vertex="1">
          <mxGeometry x="-50" y="140" width="247.01" height="117.03296703296704" as="geometry" />
        </mxCell>
        <mxCell id="mz6Z6sb08Zv7QSQIJ6Me-7" value="&lt;div&gt;&lt;font color=&quot;#837c7c&quot;&gt;- id_Departemen : int&lt;/font&gt;&lt;/div&gt;&lt;div&gt;&lt;font color=&quot;#837c7c&quot;&gt;- nama_Departemen :String&lt;br&gt;&lt;/font&gt;&lt;/div&gt;" style="text;html=1;strokeColor=none;fillColor=none;align=left;verticalAlign=middle;spacingLeft=4;spacingRight=4;overflow=hidden;rotatable=0;points=[[0,0.5],[1,0.5]];portConstraint=eastwest;whiteSpace=wrap;labelBackgroundColor=none;fontColor=#393C56;rounded=1;" parent="mz6Z6sb08Zv7QSQIJ6Me-6" vertex="1">
          <mxGeometry y="30" width="247.01" height="31.648351648351646" as="geometry" />
        </mxCell>
        <mxCell id="mz6Z6sb08Zv7QSQIJ6Me-8" value="" style="line;strokeWidth=1;fillColor=none;align=left;verticalAlign=middle;spacingTop=-1;spacingLeft=3;spacingRight=3;rotatable=0;labelPosition=right;points=[];portConstraint=eastwest;labelBackgroundColor=none;strokeColor=#E07A5F;fontColor=#393C56;rounded=1;" parent="mz6Z6sb08Zv7QSQIJ6Me-6" vertex="1">
          <mxGeometry y="61.64835164835165" width="247.01" height="6.329670329670329" as="geometry" />
        </mxCell>
        <mxCell id="mz6Z6sb08Zv7QSQIJ6Me-9" value="+ getAllDepartemen()&lt;br&gt;+ deleteDepartemen(id_departemen)&lt;br&gt;+ updateDepartemen(departemen)" style="text;html=1;strokeColor=none;fillColor=none;align=left;verticalAlign=middle;spacingLeft=4;spacingRight=4;overflow=hidden;rotatable=0;points=[[0,0.5],[1,0.5]];portConstraint=eastwest;whiteSpace=wrap;labelBackgroundColor=none;fontColor=#393C56;rounded=1;" parent="mz6Z6sb08Zv7QSQIJ6Me-6" vertex="1">
          <mxGeometry y="67.97802197802199" width="247.01" height="49.05494505494505" as="geometry" />
        </mxCell>
        <mxCell id="W0PW0qRTUlGTYrtHxYER-3" style="edgeStyle=orthogonalEdgeStyle;rounded=0;orthogonalLoop=1;jettySize=auto;html=1;entryX=-0.011;entryY=0.707;entryDx=0;entryDy=0;entryPerimeter=0;" edge="1" parent="1" source="mz6Z6sb08Zv7QSQIJ6Me-11" target="z_JI0RrxL9cTQsVmLyIO-2">
          <mxGeometry relative="1" as="geometry" />
        </mxCell>
        <mxCell id="W0PW0qRTUlGTYrtHxYER-5" value="1" style="edgeLabel;html=1;align=center;verticalAlign=middle;resizable=0;points=[];fontSize=17;" vertex="1" connectable="0" parent="W0PW0qRTUlGTYrtHxYER-3">
          <mxGeometry x="0.7834" y="-1" relative="1" as="geometry">
            <mxPoint as="offset" />
          </mxGeometry>
        </mxCell>
        <mxCell id="W0PW0qRTUlGTYrtHxYER-6" value="1" style="edgeLabel;html=1;align=center;verticalAlign=middle;resizable=0;points=[];fontSize=17;" vertex="1" connectable="0" parent="W0PW0qRTUlGTYrtHxYER-3">
          <mxGeometry x="-0.9241" relative="1" as="geometry">
            <mxPoint as="offset" />
          </mxGeometry>
        </mxCell>
        <mxCell id="W0PW0qRTUlGTYrtHxYER-9" value="Menggunakan" style="edgeLabel;html=1;align=center;verticalAlign=middle;resizable=0;points=[];fontSize=17;" vertex="1" connectable="0" parent="W0PW0qRTUlGTYrtHxYER-3">
          <mxGeometry x="-0.2709" y="-1" relative="1" as="geometry">
            <mxPoint as="offset" />
          </mxGeometry>
        </mxCell>
        <mxCell id="mz6Z6sb08Zv7QSQIJ6Me-11" value="Metode_Pembayaran" style="swimlane;fontStyle=0;align=center;verticalAlign=top;childLayout=stackLayout;horizontal=1;startSize=30;horizontalStack=0;resizeParent=1;resizeParentMax=0;resizeLast=0;collapsible=0;marginBottom=0;html=1;whiteSpace=wrap;labelBackgroundColor=none;fillColor=#e1d5e7;strokeColor=#9673a6;rounded=1;" parent="1" vertex="1">
          <mxGeometry x="822.0674285714285" y="1327.5824175824175" width="270.9576135238095" height="117.03296703296704" as="geometry" />
        </mxCell>
        <mxCell id="mz6Z6sb08Zv7QSQIJ6Me-12" value="&lt;div&gt;- id_metode_pembayaran: Integer&lt;/div&gt;&lt;div&gt;- nama_pembayaran : String&lt;/div&gt;" style="text;html=1;strokeColor=none;fillColor=none;align=left;verticalAlign=middle;spacingLeft=4;spacingRight=4;overflow=hidden;rotatable=0;points=[[0,0.5],[1,0.5]];portConstraint=eastwest;whiteSpace=wrap;labelBackgroundColor=none;fontColor=#393C56;rounded=1;" parent="mz6Z6sb08Zv7QSQIJ6Me-11" vertex="1">
          <mxGeometry y="30" width="270.9576135238095" height="31.648351648351646" as="geometry" />
        </mxCell>
        <mxCell id="mz6Z6sb08Zv7QSQIJ6Me-13" value="" style="line;strokeWidth=1;fillColor=none;align=left;verticalAlign=middle;spacingTop=-1;spacingLeft=3;spacingRight=3;rotatable=0;labelPosition=right;points=[];portConstraint=eastwest;labelBackgroundColor=none;strokeColor=#E07A5F;fontColor=#393C56;rounded=1;" parent="mz6Z6sb08Zv7QSQIJ6Me-11" vertex="1">
          <mxGeometry y="61.64835164835165" width="270.9576135238095" height="6.329670329670329" as="geometry" />
        </mxCell>
        <mxCell id="mz6Z6sb08Zv7QSQIJ6Me-14" value="+ getMetodePembayaran()&lt;br&gt;+ updateMetodePembayaran(Metode_Pembayaran)&lt;br&gt;+ BuatMetodePembayaran(Metode_Pembayaran)&lt;br&gt;+ deleteMetodePembayaran(Metode_Pembayaran)" style="text;html=1;strokeColor=none;fillColor=none;align=left;verticalAlign=middle;spacingLeft=4;spacingRight=4;overflow=hidden;rotatable=0;points=[[0,0.5],[1,0.5]];portConstraint=eastwest;whiteSpace=wrap;labelBackgroundColor=none;fontColor=#393C56;rounded=1;" parent="mz6Z6sb08Zv7QSQIJ6Me-11" vertex="1">
          <mxGeometry y="67.97802197802199" width="270.9576135238095" height="49.05494505494505" as="geometry" />
        </mxCell>
        <mxCell id="W0PW0qRTUlGTYrtHxYER-4" value="Menggunakan" style="edgeStyle=orthogonalEdgeStyle;rounded=0;orthogonalLoop=1;jettySize=auto;html=1;fontSize=17;" edge="1" parent="1" source="mz6Z6sb08Zv7QSQIJ6Me-15" target="z_JI0RrxL9cTQsVmLyIO-4">
          <mxGeometry relative="1" as="geometry">
            <Array as="points">
              <mxPoint x="1184.4413904761905" y="1299.89010989011" />
              <mxPoint x="1098.990761904762" y="1299.89010989011" />
              <mxPoint x="1098.990761904762" y="1216.021978021978" />
            </Array>
          </mxGeometry>
        </mxCell>
        <mxCell id="W0PW0qRTUlGTYrtHxYER-7" value="1" style="edgeLabel;html=1;align=center;verticalAlign=middle;resizable=0;points=[];fontSize=17;" vertex="1" connectable="0" parent="W0PW0qRTUlGTYrtHxYER-4">
          <mxGeometry x="-0.8787" y="-4" relative="1" as="geometry">
            <mxPoint as="offset" />
          </mxGeometry>
        </mxCell>
        <mxCell id="W0PW0qRTUlGTYrtHxYER-8" value="1" style="edgeLabel;html=1;align=center;verticalAlign=middle;resizable=0;points=[];fontSize=17;" vertex="1" connectable="0" parent="W0PW0qRTUlGTYrtHxYER-4">
          <mxGeometry x="0.7605" y="2" relative="1" as="geometry">
            <mxPoint as="offset" />
          </mxGeometry>
        </mxCell>
        <mxCell id="mz6Z6sb08Zv7QSQIJ6Me-15" value="Pengiriman_melalui" style="swimlane;fontStyle=0;align=center;verticalAlign=top;childLayout=stackLayout;horizontal=1;startSize=30;horizontalStack=0;resizeParent=1;resizeParentMax=0;resizeLast=0;collapsible=0;marginBottom=0;html=1;whiteSpace=wrap;labelBackgroundColor=none;fillColor=#e1d5e7;strokeColor=#9673a6;rounded=1;" parent="1" vertex="1">
          <mxGeometry x="1108.8492325714285" y="1359.2307692307693" width="259.15276742857145" height="117.03296703296702" as="geometry" />
        </mxCell>
        <mxCell id="mz6Z6sb08Zv7QSQIJ6Me-17" value="" style="line;strokeWidth=1;fillColor=none;align=left;verticalAlign=middle;spacingTop=-1;spacingLeft=3;spacingRight=3;rotatable=0;labelPosition=right;points=[];portConstraint=eastwest;labelBackgroundColor=none;strokeColor=#E07A5F;fontColor=#393C56;rounded=1;" parent="mz6Z6sb08Zv7QSQIJ6Me-15" vertex="1">
          <mxGeometry y="30" width="259.15276742857145" height="6.329670329670329" as="geometry" />
        </mxCell>
        <mxCell id="mz6Z6sb08Zv7QSQIJ6Me-16" value="&lt;div&gt;-&amp;nbsp; id_pengiriman_melalui : int&lt;br&gt;&lt;/div&gt;&lt;div&gt;- nama_pengiriman : String&lt;br&gt;&lt;/div&gt;" style="text;html=1;strokeColor=none;fillColor=none;align=left;verticalAlign=middle;spacingLeft=4;spacingRight=4;overflow=hidden;rotatable=0;points=[[0,0.5],[1,0.5]];portConstraint=eastwest;whiteSpace=wrap;labelBackgroundColor=none;fontColor=#393C56;rounded=1;" parent="mz6Z6sb08Zv7QSQIJ6Me-15" vertex="1">
          <mxGeometry y="36.32967032967033" width="259.15276742857145" height="31.648351648351646" as="geometry" />
        </mxCell>
        <mxCell id="mz6Z6sb08Zv7QSQIJ6Me-18" value="+ getPengiriman()&lt;br&gt;+ updatePengiriman(Pengiriman_melalui)&lt;br&gt;+ BuatPengiriman(Pengiriman_melalui)&lt;br&gt;+ deletePengiriman(Pengiriman_melalui)" style="text;html=1;strokeColor=none;fillColor=none;align=left;verticalAlign=middle;spacingLeft=4;spacingRight=4;overflow=hidden;rotatable=0;points=[[0,0.5],[1,0.5]];portConstraint=eastwest;whiteSpace=wrap;labelBackgroundColor=none;fontColor=#393C56;rounded=1;" parent="mz6Z6sb08Zv7QSQIJ6Me-15" vertex="1">
          <mxGeometry y="67.97802197802197" width="259.15276742857145" height="49.05494505494505" as="geometry" />
        </mxCell>
        <mxCell id="mz6Z6sb08Zv7QSQIJ6Me-20" value="Request" style="swimlane;fontStyle=0;align=center;verticalAlign=top;childLayout=stackLayout;horizontal=1;startSize=30;horizontalStack=0;resizeParent=1;resizeParentMax=0;resizeLast=0;collapsible=0;marginBottom=0;html=1;whiteSpace=wrap;labelBackgroundColor=none;fillColor=#F2CC8F;strokeColor=#E07A5F;fontColor=#393C56;rounded=1;" parent="1" vertex="1">
          <mxGeometry x="228.6602857142857" y="591.7582417582418" width="126.59352380952382" height="180.3296703296703" as="geometry" />
        </mxCell>
        <mxCell id="mz6Z6sb08Zv7QSQIJ6Me-21" value="- id_request : int&lt;br&gt;- Id_staff : int&lt;br&gt;&lt;div&gt;&lt;font color=&quot;#837c7c&quot;&gt;- qty: int&lt;/font&gt;&lt;/div&gt;&lt;div&gt;&lt;font color=&quot;#837c7c&quot;&gt;- keterangan : String&lt;/font&gt;&lt;/div&gt;&lt;div&gt;&lt;font color=&quot;#837c7c&quot;&gt;- Status_request : String&lt;br&gt;&lt;/font&gt;&lt;/div&gt;" style="text;html=1;strokeColor=none;fillColor=none;align=left;verticalAlign=middle;spacingLeft=4;spacingRight=4;overflow=hidden;rotatable=0;points=[[0,0.5],[1,0.5]];portConstraint=eastwest;whiteSpace=wrap;labelBackgroundColor=none;fontColor=#393C56;rounded=1;" parent="mz6Z6sb08Zv7QSQIJ6Me-20" vertex="1">
          <mxGeometry y="30" width="126.59352380952382" height="79.12087912087911" as="geometry" />
        </mxCell>
        <mxCell id="mz6Z6sb08Zv7QSQIJ6Me-22" value="" style="line;strokeWidth=1;fillColor=none;align=left;verticalAlign=middle;spacingTop=-1;spacingLeft=3;spacingRight=3;rotatable=0;labelPosition=right;points=[];portConstraint=eastwest;labelBackgroundColor=none;strokeColor=#E07A5F;fontColor=#393C56;rounded=1;" parent="mz6Z6sb08Zv7QSQIJ6Me-20" vertex="1">
          <mxGeometry y="109.12087912087911" width="126.59352380952382" height="6.3296703296703285" as="geometry" />
        </mxCell>
        <mxCell id="mz6Z6sb08Zv7QSQIJ6Me-23" value="&lt;div&gt;+ getRequest(Request)&lt;br&gt;+ setRequest(Request)&lt;br&gt;&lt;/div&gt;" style="text;html=1;strokeColor=none;fillColor=none;align=left;verticalAlign=middle;spacingLeft=4;spacingRight=4;overflow=hidden;rotatable=0;points=[[0,0.5],[1,0.5]];portConstraint=eastwest;whiteSpace=wrap;labelBackgroundColor=none;fontColor=#393C56;rounded=1;" parent="mz6Z6sb08Zv7QSQIJ6Me-20" vertex="1">
          <mxGeometry y="115.45054945054943" width="126.59352380952382" height="33.230769230769226" as="geometry" />
        </mxCell>
        <mxCell id="mz6Z6sb08Zv7QSQIJ6Me-24" value="+ getAllRequest()" style="text;html=1;strokeColor=none;fillColor=none;align=left;verticalAlign=middle;spacingLeft=4;spacingRight=4;overflow=hidden;rotatable=0;points=[[0,0.5],[1,0.5]];portConstraint=eastwest;whiteSpace=wrap;labelBackgroundColor=none;fontColor=#393C56;rounded=1;" parent="mz6Z6sb08Zv7QSQIJ6Me-20" vertex="1">
          <mxGeometry y="148.68131868131866" width="126.59352380952382" height="15.824175824175821" as="geometry" />
        </mxCell>
        <mxCell id="mz6Z6sb08Zv7QSQIJ6Me-25" value="+ deleteRequest(Request)" style="text;html=1;strokeColor=none;fillColor=none;align=left;verticalAlign=middle;spacingLeft=4;spacingRight=4;overflow=hidden;rotatable=0;points=[[0,0.5],[1,0.5]];portConstraint=eastwest;whiteSpace=wrap;labelBackgroundColor=none;fontColor=#393C56;rounded=1;" parent="mz6Z6sb08Zv7QSQIJ6Me-20" vertex="1">
          <mxGeometry y="164.50549450549448" width="126.59352380952382" height="15.824175824175821" as="geometry" />
        </mxCell>
        <mxCell id="mz6Z6sb08Zv7QSQIJ6Me-62" style="edgeStyle=orthogonalEdgeStyle;rounded=0;orthogonalLoop=1;jettySize=auto;html=1;entryX=-0.042;entryY=0.657;entryDx=0;entryDy=0;entryPerimeter=0;" parent="1" source="XWd1LqdxiURgioBI9aVz-73" target="mz6Z6sb08Zv7QSQIJ6Me-21" edge="1">
          <mxGeometry relative="1" as="geometry" />
        </mxCell>
        <mxCell id="mz6Z6sb08Zv7QSQIJ6Me-33" value="Request_bahan_baku" style="swimlane;fontStyle=0;align=center;verticalAlign=top;childLayout=stackLayout;horizontal=1;startSize=30;horizontalStack=0;resizeParent=1;resizeParentMax=0;resizeLast=0;collapsible=0;marginBottom=0;html=1;whiteSpace=wrap;labelBackgroundColor=none;fillColor=#F2CC8F;strokeColor=#E07A5F;fontColor=#393C56;rounded=1;" parent="1" vertex="1">
          <mxGeometry x="-119.47190476190474" y="965.2087912087911" width="261.09914285714285" height="109.12087912087912" as="geometry" />
        </mxCell>
        <mxCell id="mz6Z6sb08Zv7QSQIJ6Me-34" value="&lt;br&gt;&lt;div&gt;&lt;font color=&quot;#837c7c&quot;&gt;- id_bahan_baku: int&lt;/font&gt;&lt;/div&gt;" style="text;html=1;strokeColor=none;fillColor=none;align=left;verticalAlign=middle;spacingLeft=4;spacingRight=4;overflow=hidden;rotatable=0;points=[[0,0.5],[1,0.5]];portConstraint=eastwest;whiteSpace=wrap;labelBackgroundColor=none;fontColor=#393C56;rounded=1;" parent="mz6Z6sb08Zv7QSQIJ6Me-33" vertex="1">
          <mxGeometry y="30" width="261.09914285714285" height="31.648351648351646" as="geometry" />
        </mxCell>
        <mxCell id="mz6Z6sb08Zv7QSQIJ6Me-35" value="" style="line;strokeWidth=1;fillColor=none;align=left;verticalAlign=middle;spacingTop=-1;spacingLeft=3;spacingRight=3;rotatable=0;labelPosition=right;points=[];portConstraint=eastwest;labelBackgroundColor=none;strokeColor=#E07A5F;fontColor=#393C56;rounded=1;" parent="mz6Z6sb08Zv7QSQIJ6Me-33" vertex="1">
          <mxGeometry y="61.64835164835165" width="261.09914285714285" height="6.329670329670329" as="geometry" />
        </mxCell>
        <mxCell id="mz6Z6sb08Zv7QSQIJ6Me-38" value="+ addNewRequestBahanbaku(request_bahan_baku)" style="text;html=1;strokeColor=none;fillColor=none;align=left;verticalAlign=middle;spacingLeft=4;spacingRight=4;overflow=hidden;rotatable=0;points=[[0,0.5],[1,0.5]];portConstraint=eastwest;whiteSpace=wrap;labelBackgroundColor=none;fontColor=#393C56;rounded=1;" parent="mz6Z6sb08Zv7QSQIJ6Me-33" vertex="1">
          <mxGeometry y="67.97802197802199" width="261.09914285714285" height="41.14285714285714" as="geometry" />
        </mxCell>
        <mxCell id="mz6Z6sb08Zv7QSQIJ6Me-45" value="Request_produk" style="swimlane;fontStyle=0;align=center;verticalAlign=top;childLayout=stackLayout;horizontal=1;startSize=30;horizontalStack=0;resizeParent=1;resizeParentMax=0;resizeLast=0;collapsible=0;marginBottom=0;html=1;whiteSpace=wrap;labelBackgroundColor=none;fillColor=#F2CC8F;strokeColor=#E07A5F;fontColor=#393C56;rounded=1;" parent="1" vertex="1">
          <mxGeometry x="299.86914285714283" y="955.7142857142857" width="205.71447619047618" height="109.12087912087912" as="geometry" />
        </mxCell>
        <mxCell id="mz6Z6sb08Zv7QSQIJ6Me-46" value="&lt;br&gt;&lt;div&gt;&lt;font color=&quot;#837c7c&quot;&gt;- id_produk: int&lt;/font&gt;&lt;/div&gt;" style="text;html=1;strokeColor=none;fillColor=none;align=left;verticalAlign=middle;spacingLeft=4;spacingRight=4;overflow=hidden;rotatable=0;points=[[0,0.5],[1,0.5]];portConstraint=eastwest;whiteSpace=wrap;labelBackgroundColor=none;fontColor=#393C56;rounded=1;" parent="mz6Z6sb08Zv7QSQIJ6Me-45" vertex="1">
          <mxGeometry y="30" width="205.71447619047618" height="31.648351648351646" as="geometry" />
        </mxCell>
        <mxCell id="mz6Z6sb08Zv7QSQIJ6Me-47" value="" style="line;strokeWidth=1;fillColor=none;align=left;verticalAlign=middle;spacingTop=-1;spacingLeft=3;spacingRight=3;rotatable=0;labelPosition=right;points=[];portConstraint=eastwest;labelBackgroundColor=none;strokeColor=#E07A5F;fontColor=#393C56;rounded=1;" parent="mz6Z6sb08Zv7QSQIJ6Me-45" vertex="1">
          <mxGeometry y="61.64835164835165" width="205.71447619047618" height="6.329670329670329" as="geometry" />
        </mxCell>
        <mxCell id="mz6Z6sb08Zv7QSQIJ6Me-50" value="+ addNewRequestProduk(request_produk)" style="text;html=1;strokeColor=none;fillColor=none;align=left;verticalAlign=middle;spacingLeft=4;spacingRight=4;overflow=hidden;rotatable=0;points=[[0,0.5],[1,0.5]];portConstraint=eastwest;whiteSpace=wrap;labelBackgroundColor=none;fontColor=#393C56;rounded=1;" parent="mz6Z6sb08Zv7QSQIJ6Me-45" vertex="1">
          <mxGeometry y="67.97802197802199" width="205.71447619047618" height="41.14285714285714" as="geometry" />
        </mxCell>
        <mxCell id="mz6Z6sb08Zv7QSQIJ6Me-56" value="Extends" style="endArrow=block;endSize=16;endFill=0;html=1;rounded=0;exitX=1;exitY=0.5;exitDx=0;exitDy=0;entryX=0.25;entryY=1;entryDx=0;entryDy=0;edgeStyle=orthogonalEdgeStyle;" parent="1" source="mz6Z6sb08Zv7QSQIJ6Me-33" target="mz6Z6sb08Zv7QSQIJ6Me-20" edge="1">
          <mxGeometry width="160" relative="1" as="geometry">
            <mxPoint x="-586.2855238095239" y="275.27472527472526" as="sourcePoint" />
            <mxPoint x="-459.692" y="275.27472527472526" as="targetPoint" />
          </mxGeometry>
        </mxCell>
        <mxCell id="mz6Z6sb08Zv7QSQIJ6Me-57" value="Extends" style="endArrow=block;endSize=16;endFill=0;html=1;rounded=0;exitX=0.5;exitY=0;exitDx=0;exitDy=0;entryX=0.75;entryY=1;entryDx=0;entryDy=0;edgeStyle=orthogonalEdgeStyle;" parent="1" source="mz6Z6sb08Zv7QSQIJ6Me-45" target="mz6Z6sb08Zv7QSQIJ6Me-20" edge="1">
          <mxGeometry width="160" relative="1" as="geometry">
            <mxPoint x="-738.1977523809524" y="371.010989010989" as="sourcePoint" />
            <mxPoint x="-606.0657619047619" y="299.8021978021978" as="targetPoint" />
          </mxGeometry>
        </mxCell>
        <mxCell id="mz6Z6sb08Zv7QSQIJ6Me-66" value="" style="endArrow=diamondThin;endFill=1;endSize=24;html=1;rounded=0;entryX=0.466;entryY=1.225;entryDx=0;entryDy=0;entryPerimeter=0;exitX=0.319;exitY=-0.009;exitDx=0;exitDy=0;exitPerimeter=0;edgeStyle=orthogonalEdgeStyle;" parent="1" source="mz6Z6sb08Zv7QSQIJ6Me-20" edge="1">
          <mxGeometry width="160" relative="1" as="geometry">
            <mxPoint x="149.53933333333327" y="805.3846153846154" as="sourcePoint" />
            <mxPoint x="105.6746773333333" y="425.2087912087912" as="targetPoint" />
            <Array as="points">
              <mxPoint x="269.0119714285713" y="465.16483516483515" />
              <mxPoint x="106.02280952380954" y="465.16483516483515" />
            </Array>
          </mxGeometry>
        </mxCell>
        <mxCell id="mz6Z6sb08Zv7QSQIJ6Me-73" value="1" style="edgeLabel;html=1;align=center;verticalAlign=middle;resizable=0;points=[];fontSize=17;" parent="mz6Z6sb08Zv7QSQIJ6Me-66" vertex="1" connectable="0">
          <mxGeometry x="0.5884" y="-7" relative="1" as="geometry">
            <mxPoint as="offset" />
          </mxGeometry>
        </mxCell>
        <mxCell id="mz6Z6sb08Zv7QSQIJ6Me-74" value="1..*" style="edgeLabel;html=1;align=center;verticalAlign=middle;resizable=0;points=[];fontSize=17;" parent="mz6Z6sb08Zv7QSQIJ6Me-66" vertex="1" connectable="0">
          <mxGeometry x="-0.8444" y="-1" relative="1" as="geometry">
            <mxPoint as="offset" />
          </mxGeometry>
        </mxCell>
        <mxCell id="mz6Z6sb08Zv7QSQIJ6Me-75" value="Membuat" style="edgeLabel;html=1;align=center;verticalAlign=middle;resizable=0;points=[];fontSize=17;" parent="mz6Z6sb08Zv7QSQIJ6Me-66" vertex="1" connectable="0">
          <mxGeometry x="0.0642" y="-5" relative="1" as="geometry">
            <mxPoint y="-1" as="offset" />
          </mxGeometry>
        </mxCell>
        <mxCell id="mz6Z6sb08Zv7QSQIJ6Me-67" value="" style="endArrow=diamondThin;endFill=1;endSize=24;html=1;rounded=0;entryX=-0.03;entryY=1.063;entryDx=0;entryDy=0;entryPerimeter=0;exitX=1;exitY=0.75;exitDx=0;exitDy=0;edgeStyle=orthogonalEdgeStyle;" parent="1" source="mz6Z6sb08Zv7QSQIJ6Me-20" target="XWd1LqdxiURgioBI9aVz-82" edge="1">
          <mxGeometry width="160" relative="1" as="geometry">
            <mxPoint x="276.9240666666667" y="598.0879120879121" as="sourcePoint" />
            <mxPoint x="113.9349047619047" y="433.5164835164835" as="targetPoint" />
          </mxGeometry>
        </mxCell>
        <mxCell id="mz6Z6sb08Zv7QSQIJ6Me-70" value="Membuat" style="edgeLabel;html=1;align=center;verticalAlign=middle;resizable=0;points=[];fontSize=17;" parent="mz6Z6sb08Zv7QSQIJ6Me-67" vertex="1" connectable="0">
          <mxGeometry x="0.0553" y="6" relative="1" as="geometry">
            <mxPoint y="-1" as="offset" />
          </mxGeometry>
        </mxCell>
        <mxCell id="mz6Z6sb08Zv7QSQIJ6Me-71" value="1" style="edgeLabel;html=1;align=center;verticalAlign=middle;resizable=0;points=[];fontSize=17;" parent="mz6Z6sb08Zv7QSQIJ6Me-67" vertex="1" connectable="0">
          <mxGeometry x="0.7329" y="-1" relative="1" as="geometry">
            <mxPoint as="offset" />
          </mxGeometry>
        </mxCell>
        <mxCell id="mz6Z6sb08Zv7QSQIJ6Me-72" value="1..*" style="edgeLabel;html=1;align=center;verticalAlign=middle;resizable=0;points=[];fontSize=17;" parent="mz6Z6sb08Zv7QSQIJ6Me-67" vertex="1" connectable="0">
          <mxGeometry x="-0.9064" y="4" relative="1" as="geometry">
            <mxPoint x="-1" as="offset" />
          </mxGeometry>
        </mxCell>
        <mxCell id="mz6Z6sb08Zv7QSQIJ6Me-68" value="" style="endArrow=diamondThin;endFill=1;endSize=24;html=1;rounded=0;exitX=0.445;exitY=1.014;exitDx=0;exitDy=0;exitPerimeter=0;entryX=0.445;entryY=0.994;entryDx=0;entryDy=0;entryPerimeter=0;edgeStyle=orthogonalEdgeStyle;" parent="1" source="mz6Z6sb08Zv7QSQIJ6Me-50" target="XWd1LqdxiURgioBI9aVz-39" edge="1">
          <mxGeometry width="160" relative="1" as="geometry">
            <mxPoint x="94.15466666666669" y="1153.5164835164835" as="sourcePoint" />
            <mxPoint x="220.74819047619053" y="1153.5164835164835" as="targetPoint" />
            <Array as="points">
              <mxPoint x="391.6494476190476" y="1121.8681318681317" />
              <mxPoint x="-265.05445714285713" y="1121.8681318681317" />
            </Array>
          </mxGeometry>
        </mxCell>
        <mxCell id="mz6Z6sb08Zv7QSQIJ6Me-76" value="Merujuk pada" style="edgeLabel;html=1;align=center;verticalAlign=middle;resizable=0;points=[];fontSize=17;" parent="mz6Z6sb08Zv7QSQIJ6Me-68" vertex="1" connectable="0">
          <mxGeometry x="-0.2831" y="3" relative="1" as="geometry">
            <mxPoint x="-1" as="offset" />
          </mxGeometry>
        </mxCell>
        <mxCell id="mz6Z6sb08Zv7QSQIJ6Me-78" value="1" style="edgeLabel;html=1;align=center;verticalAlign=middle;resizable=0;points=[];fontSize=17;" parent="mz6Z6sb08Zv7QSQIJ6Me-68" vertex="1" connectable="0">
          <mxGeometry x="-0.9444" y="-5" relative="1" as="geometry">
            <mxPoint as="offset" />
          </mxGeometry>
        </mxCell>
        <mxCell id="mz6Z6sb08Zv7QSQIJ6Me-79" value="1" style="edgeLabel;html=1;align=center;verticalAlign=middle;resizable=0;points=[];fontSize=17;" parent="mz6Z6sb08Zv7QSQIJ6Me-68" vertex="1" connectable="0">
          <mxGeometry x="0.9039" y="1" relative="1" as="geometry">
            <mxPoint as="offset" />
          </mxGeometry>
        </mxCell>
        <mxCell id="mz6Z6sb08Zv7QSQIJ6Me-69" value="" style="endArrow=diamondThin;endFill=1;endSize=24;html=1;rounded=0;exitX=0;exitY=0.5;exitDx=0;exitDy=0;edgeStyle=orthogonalEdgeStyle;entryX=0.125;entryY=0.998;entryDx=0;entryDy=0;entryPerimeter=0;" parent="1" source="mz6Z6sb08Zv7QSQIJ6Me-34" edge="1" target="XWd1LqdxiURgioBI9aVz-31">
          <mxGeometry width="160" relative="1" as="geometry">
            <mxPoint x="-380.57104761904765" y="1098.131868131868" as="sourcePoint" />
            <mxPoint x="-451.7799047619048" y="662.967032967033" as="targetPoint" />
          </mxGeometry>
        </mxCell>
        <mxCell id="mz6Z6sb08Zv7QSQIJ6Me-77" value="Merujuk pada" style="edgeLabel;html=1;align=center;verticalAlign=middle;resizable=0;points=[];fontSize=17;" parent="mz6Z6sb08Zv7QSQIJ6Me-69" vertex="1" connectable="0">
          <mxGeometry x="-0.3235" y="-2" relative="1" as="geometry">
            <mxPoint x="-1" y="-1" as="offset" />
          </mxGeometry>
        </mxCell>
        <mxCell id="mz6Z6sb08Zv7QSQIJ6Me-80" value="1" style="edgeLabel;html=1;align=center;verticalAlign=middle;resizable=0;points=[];fontSize=17;" parent="mz6Z6sb08Zv7QSQIJ6Me-69" vertex="1" connectable="0">
          <mxGeometry x="-0.9225" y="-4" relative="1" as="geometry">
            <mxPoint x="-1" as="offset" />
          </mxGeometry>
        </mxCell>
        <mxCell id="mz6Z6sb08Zv7QSQIJ6Me-81" value="1" style="edgeLabel;html=1;align=center;verticalAlign=middle;resizable=0;points=[];fontSize=17;" parent="mz6Z6sb08Zv7QSQIJ6Me-69" vertex="1" connectable="0">
          <mxGeometry x="0.8603" y="6" relative="1" as="geometry">
            <mxPoint as="offset" />
          </mxGeometry>
        </mxCell>
        <mxCell id="mz6Z6sb08Zv7QSQIJ6Me-82" value="Tanggapan" style="swimlane;fontStyle=0;align=center;verticalAlign=top;childLayout=stackLayout;horizontal=1;startSize=30;horizontalStack=0;resizeParent=1;resizeParentMax=0;resizeLast=0;collapsible=0;marginBottom=0;html=1;whiteSpace=wrap;labelBackgroundColor=none;fillColor=#e1d5e7;strokeColor=#9673a6;rounded=1;" parent="1" vertex="1">
          <mxGeometry x="779.9979047619048" y="391.5851648351648" width="174.06609523809524" height="156.5934065934066" as="geometry" />
        </mxCell>
        <mxCell id="mz6Z6sb08Zv7QSQIJ6Me-83" value="- Id_tanggapan: Integer&lt;br&gt;&lt;div&gt;- id_staff: int&lt;br&gt;&lt;/div&gt;&lt;div&gt;- Id_komplain: int&lt;br&gt;&lt;/div&gt;&lt;div&gt;- isi_tanggapan: String&lt;br&gt;&lt;/div&gt;&lt;div&gt;- status_ditanggapi : boolean&lt;/div&gt;&lt;div&gt;- ditanggapi_tanggal : date&lt;br&gt;&lt;/div&gt;" style="text;html=1;strokeColor=none;fillColor=none;align=left;verticalAlign=middle;spacingLeft=4;spacingRight=4;overflow=hidden;rotatable=0;points=[[0,0.5],[1,0.5]];portConstraint=eastwest;whiteSpace=wrap;labelBackgroundColor=none;fontColor=#393C56;rounded=1;" parent="mz6Z6sb08Zv7QSQIJ6Me-82" vertex="1">
          <mxGeometry y="30" width="174.06609523809524" height="71.20879120879121" as="geometry" />
        </mxCell>
        <mxCell id="mz6Z6sb08Zv7QSQIJ6Me-84" value="" style="line;strokeWidth=1;fillColor=none;align=left;verticalAlign=middle;spacingTop=-1;spacingLeft=3;spacingRight=3;rotatable=0;labelPosition=right;points=[];portConstraint=eastwest;labelBackgroundColor=none;strokeColor=#E07A5F;fontColor=#393C56;rounded=1;" parent="mz6Z6sb08Zv7QSQIJ6Me-82" vertex="1">
          <mxGeometry y="101.20879120879121" width="174.06609523809524" height="6.32967032967033" as="geometry" />
        </mxCell>
        <mxCell id="mz6Z6sb08Zv7QSQIJ6Me-85" value="+ tambahTanggapan(Tanggapan)&lt;br&gt;+ UpdateTanggapan(Tanggapan)&lt;br&gt;+ getTanggapan()&lt;br&gt;+ hapusTanggapan(Tanggapan)" style="text;html=1;strokeColor=none;fillColor=none;align=left;verticalAlign=middle;spacingLeft=4;spacingRight=4;overflow=hidden;rotatable=0;points=[[0,0.5],[1,0.5]];portConstraint=eastwest;whiteSpace=wrap;labelBackgroundColor=none;fontColor=#393C56;rounded=1;" parent="mz6Z6sb08Zv7QSQIJ6Me-82" vertex="1">
          <mxGeometry y="107.53846153846155" width="174.06609523809524" height="49.05494505494506" as="geometry" />
        </mxCell>
        <mxCell id="mz6Z6sb08Zv7QSQIJ6Me-87" value="" style="endArrow=diamondThin;endFill=1;endSize=24;html=1;rounded=0;entryX=-0.009;entryY=0.367;entryDx=0;entryDy=0;entryPerimeter=0;exitX=0.987;exitY=0.733;exitDx=0;exitDy=0;exitPerimeter=0;edgeStyle=orthogonalEdgeStyle;" parent="1" source="mz6Z6sb08Zv7QSQIJ6Me-83" target="z_JI0RrxL9cTQsVmLyIO-14" edge="1">
          <mxGeometry width="160" relative="1" as="geometry">
            <mxPoint x="1122.7270476190477" y="370.2197802197802" as="sourcePoint" />
            <mxPoint x="1249.3205714285714" y="370.2197802197802" as="targetPoint" />
          </mxGeometry>
        </mxCell>
        <mxCell id="mz6Z6sb08Zv7QSQIJ6Me-92" value="1" style="edgeLabel;html=1;align=center;verticalAlign=middle;resizable=0;points=[];fontSize=17;" parent="mz6Z6sb08Zv7QSQIJ6Me-87" vertex="1" connectable="0">
          <mxGeometry x="-0.6894" y="-4" relative="1" as="geometry">
            <mxPoint as="offset" />
          </mxGeometry>
        </mxCell>
        <mxCell id="mz6Z6sb08Zv7QSQIJ6Me-93" value="1" style="edgeLabel;html=1;align=center;verticalAlign=middle;resizable=0;points=[];fontSize=17;" parent="mz6Z6sb08Zv7QSQIJ6Me-87" vertex="1" connectable="0">
          <mxGeometry x="0.7661" y="2" relative="1" as="geometry">
            <mxPoint x="-21" y="-10" as="offset" />
          </mxGeometry>
        </mxCell>
        <mxCell id="mz6Z6sb08Zv7QSQIJ6Me-94" value="Merujuk pada" style="edgeLabel;html=1;align=center;verticalAlign=middle;resizable=0;points=[];fontSize=17;" parent="mz6Z6sb08Zv7QSQIJ6Me-87" vertex="1" connectable="0">
          <mxGeometry x="0.0574" y="2" relative="1" as="geometry">
            <mxPoint x="-21" y="-36" as="offset" />
          </mxGeometry>
        </mxCell>
        <mxCell id="mz6Z6sb08Zv7QSQIJ6Me-88" value="" style="endArrow=diamondThin;endFill=1;endSize=24;html=1;rounded=0;exitX=-0.011;exitY=0.644;exitDx=0;exitDy=0;exitPerimeter=0;entryX=0.442;entryY=0.007;entryDx=0;entryDy=0;entryPerimeter=0;edgeStyle=orthogonalEdgeStyle;" parent="1" source="mz6Z6sb08Zv7QSQIJ6Me-83" target="XWd1LqdxiURgioBI9aVz-81" edge="1">
          <mxGeometry width="160" relative="1" as="geometry">
            <mxPoint x="806.243238095238" y="322.74725274725273" as="sourcePoint" />
            <mxPoint x="576.7924761904762" y="639.2307692307692" as="targetPoint" />
          </mxGeometry>
        </mxCell>
        <mxCell id="mz6Z6sb08Zv7QSQIJ6Me-89" value="Menanggapi" style="edgeLabel;html=1;align=center;verticalAlign=middle;resizable=0;points=[];fontSize=17;" parent="mz6Z6sb08Zv7QSQIJ6Me-88" vertex="1" connectable="0">
          <mxGeometry x="0.2887" y="-4" relative="1" as="geometry">
            <mxPoint as="offset" />
          </mxGeometry>
        </mxCell>
        <mxCell id="mz6Z6sb08Zv7QSQIJ6Me-90" value="1" style="edgeLabel;html=1;align=center;verticalAlign=middle;resizable=0;points=[];fontSize=17;" parent="mz6Z6sb08Zv7QSQIJ6Me-88" vertex="1" connectable="0">
          <mxGeometry x="0.69" y="-5" relative="1" as="geometry">
            <mxPoint as="offset" />
          </mxGeometry>
        </mxCell>
        <mxCell id="mz6Z6sb08Zv7QSQIJ6Me-91" value="1..*" style="edgeLabel;html=1;align=center;verticalAlign=middle;resizable=0;points=[];fontSize=17;" parent="mz6Z6sb08Zv7QSQIJ6Me-88" vertex="1" connectable="0">
          <mxGeometry x="-0.9212" y="-3" relative="1" as="geometry">
            <mxPoint x="-25" as="offset" />
          </mxGeometry>
        </mxCell>
        <mxCell id="Ktp6Uv2Z8ghURjh-asv7-1" value="request_retur_barang" style="swimlane;fontStyle=0;align=center;verticalAlign=top;childLayout=stackLayout;horizontal=1;startSize=30;horizontalStack=0;resizeParent=1;resizeParentMax=0;resizeLast=0;collapsible=0;marginBottom=0;html=1;whiteSpace=wrap;labelBackgroundColor=none;fillColor=#e1d5e7;strokeColor=#9673a6;rounded=1;" parent="1" vertex="1">
          <mxGeometry x="1029.999619047619" y="295.05054945054945" width="245.27495238095239" height="156.5934065934066" as="geometry" />
        </mxCell>
        <mxCell id="Ktp6Uv2Z8ghURjh-asv7-2" value="&lt;div&gt;- id_request_retur_barang : integer&lt;/div&gt;&lt;div&gt;- id_komplain : int&lt;/div&gt;&lt;div&gt;- konfirmasiReturBarang: boolean&lt;/div&gt;&lt;div&gt;- keterangan : string&lt;br&gt;&lt;/div&gt;" style="text;html=1;strokeColor=none;fillColor=none;align=left;verticalAlign=middle;spacingLeft=4;spacingRight=4;overflow=hidden;rotatable=0;points=[[0,0.5],[1,0.5]];portConstraint=eastwest;whiteSpace=wrap;labelBackgroundColor=none;fontColor=#393C56;rounded=1;" parent="Ktp6Uv2Z8ghURjh-asv7-1" vertex="1">
          <mxGeometry y="30" width="245.27495238095239" height="71.20879120879121" as="geometry" />
        </mxCell>
        <mxCell id="Ktp6Uv2Z8ghURjh-asv7-3" value="" style="line;strokeWidth=1;fillColor=none;align=left;verticalAlign=middle;spacingTop=-1;spacingLeft=3;spacingRight=3;rotatable=0;labelPosition=right;points=[];portConstraint=eastwest;labelBackgroundColor=none;strokeColor=#E07A5F;fontColor=#393C56;rounded=1;" parent="Ktp6Uv2Z8ghURjh-asv7-1" vertex="1">
          <mxGeometry y="101.20879120879121" width="245.27495238095239" height="6.32967032967033" as="geometry" />
        </mxCell>
        <mxCell id="Ktp6Uv2Z8ghURjh-asv7-4" value="+ set_request_retur_barang(id_komplain, boolean)" style="text;html=1;strokeColor=none;fillColor=none;align=left;verticalAlign=middle;spacingLeft=4;spacingRight=4;overflow=hidden;rotatable=0;points=[[0,0.5],[1,0.5]];portConstraint=eastwest;whiteSpace=wrap;labelBackgroundColor=none;fontColor=#393C56;rounded=1;" parent="Ktp6Uv2Z8ghURjh-asv7-1" vertex="1">
          <mxGeometry y="107.53846153846155" width="245.27495238095239" height="49.05494505494506" as="geometry" />
        </mxCell>
        <mxCell id="Ktp6Uv2Z8ghURjh-asv7-5" value="" style="endArrow=diamondThin;endFill=1;endSize=24;html=1;rounded=0;exitX=0.552;exitY=1.071;exitDx=0;exitDy=0;exitPerimeter=0;entryX=0.681;entryY=-0.019;entryDx=0;entryDy=0;entryPerimeter=0;" parent="1" source="Ktp6Uv2Z8ghURjh-asv7-4" target="z_JI0RrxL9cTQsVmLyIO-10" edge="1">
          <mxGeometry width="160" relative="1" as="geometry">
            <mxPoint x="1439.210857142857" y="457.2527472527472" as="sourcePoint" />
            <mxPoint x="1565.804380952381" y="457.2527472527472" as="targetPoint" />
          </mxGeometry>
        </mxCell>
        <mxCell id="Ktp6Uv2Z8ghURjh-asv7-6" value="1" style="edgeLabel;html=1;align=center;verticalAlign=middle;resizable=0;points=[];fontSize=17;" parent="Ktp6Uv2Z8ghURjh-asv7-5" vertex="1" connectable="0">
          <mxGeometry x="0.5649" relative="1" as="geometry">
            <mxPoint as="offset" />
          </mxGeometry>
        </mxCell>
        <mxCell id="Ktp6Uv2Z8ghURjh-asv7-7" value="1" style="edgeLabel;html=1;align=center;verticalAlign=middle;resizable=0;points=[];fontSize=17;" parent="Ktp6Uv2Z8ghURjh-asv7-5" vertex="1" connectable="0">
          <mxGeometry x="-0.7624" relative="1" as="geometry">
            <mxPoint as="offset" />
          </mxGeometry>
        </mxCell>
        <mxCell id="Ktp6Uv2Z8ghURjh-asv7-9" value="Merujuk Pada" style="edgeLabel;html=1;align=center;verticalAlign=middle;resizable=0;points=[];fontSize=17;" parent="Ktp6Uv2Z8ghURjh-asv7-5" vertex="1" connectable="0">
          <mxGeometry x="-0.094" y="-4" relative="1" as="geometry">
            <mxPoint as="offset" />
          </mxGeometry>
        </mxCell>
      </root>
    </mxGraphModel>
  </diagram>
</mxfile>
